<mxfile host="app.diagrams.net" modified="2020-03-31T14:13:00.839Z" agent="5.0 (Macintosh)" etag="udnN86X9gvjE9OHMvlOi" version="12.9.5" type="github">
  <diagram id="TrwYCOJrJQwUgYm5bbMd" name="Page-1">
    <mxGraphModel dx="799" dy="537" grid="1" gridSize="10" guides="1" tooltips="1" connect="1" arrows="1" fold="1" page="1" pageScale="1" pageWidth="850" pageHeight="1100" math="0" shadow="0">
      <root>
        <mxCell id="0" />
        <mxCell id="1" parent="0" />
        <mxCell id="nZGiTTlPK6p4zg9V-APO-55" value="" style="edgeStyle=orthogonalEdgeStyle;rounded=0;orthogonalLoop=1;jettySize=auto;html=1;" edge="1" parent="1" source="nZGiTTlPK6p4zg9V-APO-1" target="nZGiTTlPK6p4zg9V-APO-14">
          <mxGeometry relative="1" as="geometry" />
        </mxCell>
        <mxCell id="nZGiTTlPK6p4zg9V-APO-1" value="User" style="shape=umlActor;verticalLabelPosition=bottom;labelBackgroundColor=#ffffff;verticalAlign=top;html=1;outlineConnect=0;" vertex="1" parent="1">
          <mxGeometry x="50" y="80" width="30" height="60" as="geometry" />
        </mxCell>
        <mxCell id="nZGiTTlPK6p4zg9V-APO-57" value="yes" style="edgeStyle=orthogonalEdgeStyle;rounded=0;orthogonalLoop=1;jettySize=auto;html=1;exitX=1;exitY=0.5;exitDx=0;exitDy=0;" edge="1" parent="1" source="nZGiTTlPK6p4zg9V-APO-11">
          <mxGeometry relative="1" as="geometry">
            <mxPoint x="410" y="100" as="targetPoint" />
            <Array as="points">
              <mxPoint x="275" y="100" />
            </Array>
          </mxGeometry>
        </mxCell>
        <mxCell id="nZGiTTlPK6p4zg9V-APO-11" value="pomerium" style="shape=image;verticalLabelPosition=bottom;labelBackgroundColor=#ffffff;verticalAlign=top;aspect=fixed;imageAspect=0;image=data:image/png,iVBORw0KGgoAAAANSUhEUgAAAZAAAAGQCAYAAACAvzbMAAAgAElEQVR4Xu2dCbhkVXW21+1uGhoaBFSQQQZBcUZF1Jio+KvRqI9DEjUxDmgUjTFGzeT4J1HzO0RxjEEQaQFFFBUQkFkEBRllkHlqmrmZoZtuhqb//Z511q1zq+veW1W3hjN87/PsrqpT1XWrdu39fXtYe++JvXZba0KUhIk8xX1Yk99Ox/yU1iukBSltlNIWKW2Zp81S2rTtdnH+Om7XT2lRSgvz/x/vE5+BSvJwSg/ltw+mtCqlB1JakdLK/PaulO5uu701T8vz18X7ROrm+0FUVG5VaUUpmJCBiDERZkGaZy2R7sQG1hJ8EiawQ0qPT2nb/HabPGEYvF8ZecTcTG7M0/Up3ZDfLjU3HUwmEibViTA33i8MRRVZjBwZiBgVYRRxS8u7vfVNa/uxKT0mpUebm8FOKT0xpe3ztEP+uunoJKbRk2hnuuu90v73gvbrxR5WJ8iPpSkty2+vTOlqc9O5I6XbU7otf10R8oMUhhK3QgwVGYgYJhhFJHoXCFuRra1lCtxiFk9Iacf8Wiex5T1CQIu9mOLjMlM0uLgfjzGBTr0nnl+aJwyFdF3+mNub8tcFvAe9FPIqkhADRwYiBkkIeIhg+5DU01J6cn67s7lZYBwMQ7WD6MX/j55Lu2HUjaKhRE8CMINOxsLwFwZyTUpXpXRxSpflt0X4/1Ac8hJizshAxFwptv7bW7pPSen5KT0vpV3M5yi2SmmT4ousZRZFA6qzUfRK0VDifidTuTelm83nVy5P6ayUzkzp0uKLrDXnBBIA0TcyENEriPp0hYbIp5entEdKu+WPmcsgwqkIQ1CIYXvPQnRPe0+FvGyfG2ISnrkTIsDOTemUlE7MH3dipt9WiHWQgYjZCHHvNPSBaD07pdek9ErzXgZRUkRNFYmWs8xiuBRNJXpyRVabR3fROzk+paNTOs/W7TnO9JsLMYkMRHSiKPTFiB/WS2yc0nNSel1Kr01pu/x17SBKcb3T82L4ROXmtt1MgOvLUjoqpSPNzeQ+8/UtAb2aojEJMYkMRBSJYRAWuAUMPzF3sWtKrzc3DRbidSJavqK8zPQbsfARMzkipQvM51KKa1FYYBnDj0LIQEQmJjF2XoyaIlLqmSm9ynyIirmMIHoX0wmRqBbRuyj2Upg7YYjr2JQutKmRXRHVhZlIQBqMDKS5RG+j2KJkHQZRUy9K6RX544BeCf8nJr5F/UAMKAskehsB605OSOk086guHkOnMiQahAykebQPU3GfYSmip15oPr8R8Jroocg0mgXCED2MopkwT3K6eTQXw10xR6bhrQYiA2kOYQDxgz8ppb9O6aXm8xvsLwUhAtOtihbNg/JAuSiGCrNvF/Mkv0rpkJSuyK+3lzNRY2QgzYNw2/el9FzzTQiDWMinISoxHTHExW3Mg8D1KZ2T0ndSOq5wXdQcGUj96NQCpHexZ57YmHDDwnPRspRpiF4IM4keCdxvvgHkkjzRSwk6lUtRcWQg9SGGm2IMmrMttk9pr5T+1qaG3saPLtMQg6BTeSIkeP+U9jXfr4szVKC9nIoKIwOpPhEZFSG4j0rpWSm9O6V3xIuEGCMHpvS9lM5P6Z78WnG3YFFRZCDVBdOgEkbLjn2nCL99u/mCP9B6DTFOEBdS9DpYoHiQeThw7MdFT7nTVv+iAshAqgdmgHFEGO7jzMNw32IeiguxZqM4Pi3EuIjIvggHJgT4UPMw4FvyazyHkUiQKoQMpFpgCDF5yZwGvY2/NO95QAxjFSNkhCgL7eWTnshh5r0S5kwimCPWloiSIwOpBhFeS8UiguoDKb3J/JwNiAVfMg5RBSJkPHrInFvyk5S+bR7JxfUIFxYlRgZSLVi/8X7zPaowlOiNKAxXVI32sst99tzax3w9iagAMbklykXxd6FyMSnOQq1vmUdYRW8EtM2IqCLFHkisRaJsU8Y5/IoyXyzX0qoSoh+lXMTvQWuM4agXmE84Hm5+wh/XIrJFxiHqQBhJlGvKOPuxUebZwJE6ECG/IM0qEfoxykFEVkUleWpK30zpjJT+T7woR2G5oo50KtcvM68D1AXqBETjqv21YgzIQMZP9CqYWHxCSp9K6Xfmcx2aSBRNJuZJqAtsI0/doI5EuK+CRsaMDGR80IKK2HcWU73LPKTxs+bHxnJdk+OiyVD2qQPUhcXmdYM6Ql2JBYjUIdWRMSEDGQ8x5suCPxb//dh8q4dnm68sV+tKiBbRS6duUEeoK9QZ6g51KOYExYiRgYweCjpRJxwR+7WUfmAecUJXneu0rNSiEmIq1AnqRqxqp85Qd6hD1CWuy0RGjAxkdIQpUND/KqVfp/SP5ntYtS+sEkJ0JqIPqTPUHeoQdYk6FaHtaoCNCBnI8InCTDd7O/Ou95KUnpZfU1SJEL1BXYmoReoQdWmJ+Wp26lgEnqhODRkZyPCg8JIozOubb63Olg1sQcJjrvO8fgMh+iOCTKKOsS8cdYy6VqxjMpIhIfEaDsWFUZw9/v08bVl4jQq1EIOhWJeoY1HfdrFWPdTw8BCQgQwewgoZi6UF9E7zHUfZaj0WCQohhgt1jTp3qnkdpC5SJ2M7eTEgZCCDg7xkXJawwqeYbwq3xHyiL/b6EUIMH+oadY66t8S8LlInqZvUUdXFAaGMHAwxZEVkCNEgTObtaa2QQ3WfhRgt1LkIjd/TvE5SN6mjqpMDQgYyd2Jdx0YpfT2l/c2jQuJUQOWxEOMh6h91kTpJ3WRfrU1M60YGgsStf2LijoLINtTsmvsh8wOftMWCEOWAOhhbBlE3P2heV9ndWutG5ogMpD8idBDem9IpKT0/f8x1bUMiRLmI7VBg95R+ZV53IcJ9RY/IQHojYsopcGx4uF9K+6b0qPxavEYIUT6ibkb9pe5Sh7mvNSN9IAPpnsgrCtrTzQ+7eU/hmgqeENWgOIJAHaYuU6fjmnSxS5RR3RERHRQwIjkYQ2XISmOoQlST4hwmdZk6Td2mjitKq0tkILPD2CmFbJH5eQQHma92VRSHENUnoiip09Rt6jh1nWuay5wFGcjMkD9Eb2yV0oHmJ6JxTeYhRH0IE6FuU8cxEup8HOompkGZMz10cenKPielo8w3aqOQcV3mIUS9oE5Tt6njf2Fe56n7aICGqKdBBjI9jIW+0VoFKVooKkxC1BPqdowwRMMRDYjJddGGDGQqRXP4J/MTz+jKxpCVzEOIehMjDNR56j4agBYUnxc5MpAW5AUtDY7N3DulL5tPpikiQ4jmEZGXaABa8FVzbUAjpJs5yggnCsum5vvlfCS/rsIiRHOJRiV82Fwb0Ag1KnMkjq0w3W1TOjilt+WPtThQCBGLDtEEtAGNQCsU5msyEAoAoXpPTelHKb3GfOdOzXcIIYKYF0Eb0Ai0As1AOxptIk02EL47BYCN1Q5N6Y/NC4hOLRNCdAJtQCPQih+br2Bv9FqRpn5xvjfjmC8zP2iGfXAoCDIPIcRMxNbwnC+CibzCXEsaqaVN/NJhHm8wD9Hb3jSeKYTonpg33c5cQ1h42EgTadIXjnFMfui/MT8rWXtaCSH6IdaKPNY8OgtNieisxsyfNsVAiitM90xpH/MzPBSOJ4Tol2iQoiVoyp7WsB0rmmAgxZWl7P3/7ZQWW0O7nEKIgRJD4mgK2oLGNGbniiYIKD8kk178sN9IaQOTeQghBkeYCNqCxqA1aE7tRzfqLqKxzmNPa5mHVpcLIQYNmoK2hInsaQ1YJ1JnIeW78QOyelTmIYQYNu0mgvbUep1IXb9YdCk5opJxyY1N5iGEGD5hImgO2oMG1XbIvI5fKiIj2Mf/OybzEEKMlqKJoEFoUS0jPusmqhFt9bKU/jelTcx/uNpHQwghSgWag/agQYT4vtxquOasTgYSq0PZn2Y/ay0SrNN3FEJUB7QHDdoipX3NtalWu17URVwjVJcdMr+b0o5WQ7cXQlSOGBVBk9Cm2MW3FtpUBwMJl+f4SXoebIwo8xBClIUwEbQJjYpjsiuvv1X/AnHYC+OM30vphdY6z0MIIcoCmoQ2oVFoFZpV+UPrqm4gfH4S4XKvMp3nIYQoL3GeCFqFZoV+VZYqf3icm27gF813wtR5HkKIshPniaBZaBcaVtleSFUNhM9N9+9DKX3UPFyuNpENQohag1ahWWgXGlbZdWpV/NCR+a9P6fPW2qpdCCGqApqFdqFhaFklG8FVE94I131WSt9KaUNz9xZCiKqBdqFhaBmaVrnw3ioZSITCcQIY8dTbmlaZCyGqS6xWR8vQNLStUksQqmIg8TnZW4ZtAXazik8+CSGEtYKB0DS0DY2DSmhzFT5kzHGQ/i2lP7fWIhwZiBCiyoS+oWloGxoXeld6fSu7gZCBJMYG2dHyH83jqOO6EEJUndAztA2Nw0jQvNLrXNkNBBgjfFpKX0tpI/PxwSp8biGE6BY0DW1D4/Y21zy0r9SUWYhx3tim5ADz/WNqezCLEKLxoG1o3Nbmmlf67U6qIMZfSWl3q1h0ghBC9EFEm6J5aF+pKauB8Llw3vem9J78vsxDCNEE0Do0D+1DA0u7Ur2MH4rMoxu3a0pfantOCCGaBBqIFpbySNyyGUiErj3afN/8TfPrpR0DFEKIIRCahwaihWhihPyWhjJ9GDIneh//N6Xn5ve1VYkQoomgfWggWvjv+X00sjQN6jIZCJ+FOOi/SOnd1gphK01mCSHECAntQwvfZa6NaGRpdLssH4RdKIk8eIr57pSL8+tl+XxCCDEOQgPRRLQRjUQrS7FzbxkEms9AhixK6WMp7WQV3JVSCCGGROxCjjaikWhlKc5UH/sHMB/nI70lpbeZzEMIIdoJE0Ej0crQzbEybgPh75MJu6T0hfwxSfMeQgjRIiKwSGglmjn2VerjNhBgLO+zKW1pJemWCSFECYnhfrQSzRx7RNa4xZrogrem9CbTanMhhJiNWKWOZv6NjXnDxXEZSHTHtkvpv23MmSCEEBUDzUQ70dCxDfuPy0CADGCzsC3Mv/xYMkAIISpG6CXaiYaOrQE+DgNhzoMu2JvND07hy8s8hBCie9BMtBMNRUvR1JGvDRm1gcQkEIfHs13J2LpeQghRcWIqAC1FU0cehDTSP2atCaBPWuvELRmIEEL0TvRC0FI0deSBSKM0ELpX7OPyMvPoASGEEIMBTUVb0diRDWWNykD4OzglS/A5NP4x5qsqR/X3hRCijqChaCmairaisWjtSLR1JH/EWl0tluC/Or8/0q6WEELUFLQUTUVb/yq/P5KpgVEYSEycb5vSR/PHI/uCQghRc6KBjrZ+xFxrRzKhPuw/ECaxnvkZH8+wEm1FLIQQNSGOxEBj0Vo0F4baUB+2gQDO+ETz8TkmeDR0JYQQgwdtRWPRWjR36AsMh20gsbjln1La3PzvDdURhRCiocS6ELT2n621aHtoDNtAgPN89zTvXqn3IYQQwwONRWvfaa69Q2WYBhI9jf9n/neG+beEEEI4obdoLwxt1GdYos4Hpuv0+pReWrgmhBBiuITWor1vsCEePDUsA+F910/p0zbkMTghhBAdQXvZJ2sDG5LWD+NNYwzu7Sntaq3eiBBCiNEQvY5nmp+jPpQ56EEbSHSTiAL4oLWiAIbSfRJCCNGRaLhjGmgxmhzXB8agDSQWs7wjpaeazEMIIcZFmAhajCYPfBH3IA2E92JTL/al55xzVkJq6EoIIcYHGowWo8mcYDjQTWwH9kbWOuuDzbx2y++r9yGEEOMjeiFoMpvZxrDWQBiUgfA+LKF/nLmB8JjukgxECCHGBxocGyuizWg0Wj0Q7R/Im1jLKF6b0gtN27ULIURZiO3e0WY0GgbSuB+EgURv49HWOmlQvQ8hhCgH0QsBNBqtHsh273N+gwIvSenF5k430Jl+IYQQcwJNRpvR6T2mPtU/czUQnI0PtXFK7zJ/Px0WJYQQ5SK0mlu0Gs2es1bP1UAiTJcZ/leah4ip9yGEEOUDbUaj/9Rcs2FOSy3maiAQpw1yOyc3E0IIMVTQ6KJmz4lBGMgO5otUFHklhBDlJtbrodk7TH2qdwZhIO81/1DqfQghRDVAs9/XfrFX5mIgGMamKb2n8FgIIUS5Ca1mGGuzwuOe6ddA+H90g/Y0/wBCCCGqBdpNRBZa3pcX9PWfzP8gM/p75vfnNJMvhBBipIRuv9PmsPHtxF679fz/ovfx8pR+YX7yII/77gZVnYn0zSfm5RnQ2FwQogKszZXzkZR6lr5aEZr9oPmxt8fmjwmG6pp+DCRiiX9m/oehebKJaeR3H37I0yNrPFEwG144hSgVWSMvpXnzPS1YzxNkVbWZ9TW+9ZHmWh7a3jW9Gkj0PnZJ6cSUtskfN8pAMAeMYk3K6oWLzHZ6ptn2TzZ73A5mm21pttGmqU+4sP1/CSHGxUOpnb3ybrO7bjW7ZanZdZeZXX1han6vMpu/wE0Fg2kYod03pvSKlC7LH3fdC+nVQPBstgLmoPZ/t/7nUCoFBQvTwDAYqqLl8uTdzZ7/ar9dtFHKmPW9EAohyg2Nv4ceMFu1Minm2WZnHuO3jCIwtIWhRJ1vCBjGZ1P6D2tpfFf0YiDhz/yBk1L6ExvSQe1lYt68fHgqZfEmjzZ71h5mr3xn6m1s3/5KZ7LQdZ2tQoihk6vXdL2MW64zO+77ZuefYnbvHV7vaShS72tOaPhvU3qZ+ZwIdKVgvRhIONPrU1qS0qPM/0hteyH0KB6432yD1MN45ovTF/+A2VY7tL2ocQN4QtSEDnX35qVmR3zb7MJTzVanHsr6G3qPpcbEhor3mEfVHmE99EJ6Ef/IbqKvWEA4kP3kywrmsTJl6bZPNHvHp8ze/yU3D7q4U5B5CFFN2uoudZs6Tl2nzlP3V95b+6FpNBwtR9PRdnKl615FtwZAFjI7v2NKL8qv1VY6KTD3p4Kz+6vMPrC32Qte6/MfDE8xByKEqB/U7ZjrpM5T95/3KteCmptIaDnajsaj9V19427lMF73xyk91Wrc+6Cg0HV9+dvN3vtfHllFFzYm1oQQ9YU6Tl2nzlP33/M51wI0ocYmEr0QtB2Nj2uz0s2LkE0ciQWDOBTjY3M+iKRs8GVizuPP3mX21//qcx9MotW44AghOkCdp+6jAWgBmoA2ZOG+7S+uPnwlNB1tR+PRejR/1q/ajYHwGsbEdjKPFYbaSSrd11X3mb3sr83+4h/NFizwMVGiMYQQzYO6jwagBWgC2oBG1HQYOzQdjUfruwqQmvUF1ppQeVZKO5jPznfz/ypDNmF+n6/reMu/5F3YR2pbUIQQXYIGoAVoAtqARqAVNRyVQO3Q9h3MtR5mnUyfTSKja7PI/MjauFYbKCCMb+68q9mbP9qK/VbPQwgBaAGagDagEWgFmlHDBmZoO1qP5s86VdFtFmxtfo4ujlQf701ZsyZ57uJNzV7/d2aP3tojMGQeQogiaALagEagFWgG2jGzvFYOtB2NR+vR/FnpViqfkdLjrMuJlcqw1sc4Cdnb9SWtaCshhGgnorPQCjQjWxM26yBPpUDb0Xi0Hs2fldkMhOxhZp6dGruaVKkSa1Jh2GI7s9e+R8NWQojZieEsNAPtQENqBiqI1qP5aP+MFjmTZEZPgy1LXpvfn+n11SNlzcvemr7gY8zXeNSnbyWEGAYTrhVoBtoxs7xWktB4NB/th2mVcSZDiKx5TkqPzh9P+0aVYsK7olumFsSL3mi+wrwe30wIMWRip160Y8vtXUtqoozAN0Hr0Xy0H6a1yZkMJHid1ck8LB/oe8hsj7eYLdygIeYxbREQypsh0W++9vv/RgiagXbs8WbXkppJSJgIG+fOyGwGwhvRleG2HnmUtx449Ol5EVdW1gK71j/rbJ8vTkCc8STEwq834+sawDrff5qS3VW+Bl3+VnVmnXzqIl87UoWymv/WaAhakn3Gab5vBQm9f01+Oy3TbeceDkQX5ty25yoNk2Cr708th780e9unyhl1FZWmOKlPyOADq3130BuvMrvlWrPbbjS77w6/9mB6jqgQDrbaYLHZJpuZbbaVD9Nt+6R0/7Fm6y/y5yf/DlEkiRrGs3ck+76pZBd7nBws9MAqP6nu+ivNli9L928xu+dOj/Vf86DnD/m20SY+9k0o51ZPSPm6s9mijX3L7/mF4PZsEWrb36krncoqj8lTtv64OZXTm65OZfUGs7tv8x2uuU5I7Pz1UllNZXIjyuoWZo99vNnjd/Zb8pTyWiQLdClZU5bvcfDnzE45LH0Xtn7P61SNeK65B4QnTGEmA4FPp/SfxSeqDoZxXxKHf97Pw/HKRFYZqSS5GNE1vjOJ2Q1J2C4+3eyK9DPedI2PuSJqRZGK2+zXzCt13PKeHLX7xGebPeUFvhBq82QuG26c/59H/P/VNQotKnV8P3ZXvTMZxhXnmV16ptmVv0/ilh7PW5AX/MhXbvP3iFbwZOs5Nwm2/N5ld7OnpnzdZmfPV7a+gEeSuEywd1KJBG9QtJdVwIRvTQZ82Zl+wt+1f/BGT7Z/VKGsRr5GWc1u8vKKIGPKT3iG2ZOfl8rr85OhbOPGHVD+y7QS/IJfm335vWYbb+6fv2b8R0qfye/nv1aL6QyEqka1O8385MFakE1+pW+14aPMPnGQF0wK7tgrOBWnsAaFVto1F5pdmHL/3JNSq/i61ALeIAnTwrylO1n7Jv/71J+2IHzxeG16/4cf9pYhLeln/HHqXr7MbKdneS8FskWUNRI8ftvi2h5aw1edb/b7X5lddJr3RBeu7/ma9cJ6zFMgzx5+0BNhnc99RcrbVGN2fHrK5zyGJWttl7Cn2y/FBgzfbenFyYjPMjvneDcNri8gX/nO/ZRV6sND3juEJ+2WyurLk6GktvAOT/fXx8T1OBs9oR2MBHz+7V5vY0v4GnFGSi+0lidMoZOBxE/OLPwVKW2eP668rCC+nIO8+5+avSt56qLFrUIwLrLW/1oX7lUrkmGc6IlWDaLEZ6SrH6/ru3BSUfMKR4ucYQSGveiVIHq7pbTVjv7SzMxK1MLrh2Ir9fpUis9P+XnWMUnsLnHDYLghE6LI0z7zNVrWCAdiSu+G4Zdnvijl6yvNnr2H/4aZ6OavqyrthnzRb1NZPcHsvNTIueOm1DDbxPM2e21eXvsl8orfiHK6KpXXLbZNdZc8fan3TGCc5hzaQb393v91A8128Mbcqk9o/l0p7ZLSbfnjKb9qJwOh2pEFbzE/unaDKc9WGPayuef29MX+2ey1e43XOKAocmcda/abI8wuTn7/UKowi2m9Tvhr5lIRO5IbCRX0gWSoD6aW3hNSy+55f2b20rf40FaVTYShI4ajVtxtdspPzH53tBsHprFwkYvbMCp5ZtDz/f3ZcG9hEtOnp97Ii97gBg1lG37pluL8A72MXx2aenInJ3W5zXu0NHKysrpOG3XuRFnFLPhNt3i85+dL/tLs8U/K/2Zu5OOA+nn0vmY/+rIPtTH0XCPoB747pR9ayxsm6WQgrD4kC76T0l5tz1UaDISx73/aJ7UO/3S8lXmy+3u92eH/m1rIp5jde6cbRwwNjIKsctL7yXcY3Tn1SF6disuuL85fEO2QihD5Sqv42O+bXXmeP46zXYYhcOuQ/t58enprPV8Xb5YE7+Vmr3u/2WO2Hm+564dsvmeeDykdc4DZbw83u+U6nwBnqArDHngjpwNh0A896AEOmMeL32T2qnf48+MYTYjfkt7HV9Lvu/mWtTKQqP37mXtBeMMk7QbCiynayNc5Ke2WElWuwh1vJytYE/6D//O+Pq467u1Lzkgt4yO/7WPzzHGst3B0xtFO1nJe6xWTjeJe/Odmf/4hN90qECLHpO3Pv2F22uE+Jp0NVfG7j8I42smNBMFDVLbeyewNf+9DqBkVMOf4iMsu8xb2Fed4XjNMN5TecRfE8BbDsAxfMefEVuvM5Y3aREJDCHD58l55w2DtePJlCIT2E4VFNBaDhfRAJr9du3yS9UgYY15bFq5VnwkXZ7qYtEbHQi5iVLxDvmR24Gc8aoXPw3DRuMwDYvhhUfosq1eYHX9QqhDvM7v9pvZXlo84u4Vw0a99wOy4A30YkO+SjduPwzxgbT4UuMBDUm9NrfbvfjwZ3Lfy33rC87yMhABS+c/8pdneqXV9+dleTllAx+cfl0jGXAx5ingzlPa1v/NbzCP7XCP+bNRhtCV+15oQ3wQveLJ12Ey33UDi8R+ZT6LXBr41hY7ImIgvH+XvnIlYyt0Vd5n9z0fMTkgiR6QJlZECP67K2E527sFCb0khGP/9tx65BOOomLPBZ0JE/nB6EpEPps98js9z8PnHZhxtxO8bvbkj9zHb92M+np9F7ZTkcwbRikcMf5F66/t93Htz9JCzXnxJPm80HOgNEQm1b/qcJxycPxlGMmRCQ9AUtAWNGaWujAi8AE+AKZ4xnYHsbn6gCD9BbfIj63ovyivCCIlu7u2pkH/zw2bnnOiFvqwhfyEg62/gFfObH/IopmjdleUzZ5U1faazjzfb5198ASBhuWUdQsg+E/m6yIMmvvVhX+dDOSiLKGdDgRM+PPSj/zb72Te81xFDnGUjymM2iZ8++yFfNDvif1plY1QNHjSF37VsjYE5EjmIF+AJMK2B8GLGt2gnPSW/Vp/syMWP4QQmjUdFmMfy613kLjvLo1bKIhgzQX7RQ1qRWp/f/aSHF0+K3Ygq5nTE5OXvjjHb/5Me6slvW0aRa4fPiNgwbv7tj/oq7Sy8mto3RjLxm+cT/wyxnvQDb0RUognJ757n6+HfNvvpN72cjqo4oCmT5a8K+dU9oVR4Ak1vSunkNywaCPd5cueUtipcF3MAYbhruQ8DsOJ58iSzioCoYCKrk6h8/z/NLjjVW6RZ5RxV7WyDz4R5nH1C+kz/0RrKGNfn6YfMnJPYXXNRMudP5CYyxmE38pTP9GDqefw09TpO/al/vqqJIfnHSvaj9vUAlSyAYszGXBPwBLyB3Jz0jXYDgaeltG3bNaygBxYAACAASURBVNEHVEgWLn7v02aXn+vmQURO5Srlwy4mjIMj2KySH1cYapjFJb8zO/izvro+i6SrkHkEkz2R87zFf+8d+fURm0gMA1EuCX0++VBvNIxqHmHQYBgs3mT+5vgDvayOOk9rRHjANik9te3aOkNYwGx7yv6pXRXRI2u99fPDz/u2GYs38ZXlowwxHBgTHoa6/ka+cGz/T3t01mTEy4iI4cAbrkj5+gUfWqvKsFVH0udmrQjzYeedmFrN+7VayyP7TvnfQWTPOMpb7jFZXmXR5bMzL3L4//gcWZnmmSoGikWpxBNiamOdISwuRBDpk/JbZXefRGvulweYnf4LD/HLjr6sonnkZFE5D3loLLsBswMpC8tGZYjZsNWEbxtx2Nd9g0kmzKsschmUlbW+XuXEH5id9nMXu8nnhgxlld+QSLsffcmv1aXFTmODdUGHfc3sukv9sYaz+iJKwxPz28lw3qKB8CLGuZ6QX9PwVR9EFAu7kf7ye15oR9aaHAGEdmIiF55qduyS/OIIvl/2J3JTJt4/VpbXgUzE53mYL1FPV57vZYjeyTCJv8vQ2SH/7UOU2crymohsNs+Uvs8tS1O+ftO37ClrNFnJCS/AG/AIat46BgI75Kl4TXRJ9DzYX+one/u28ePa6G2YINwIzdH7u9gNu6RkEVfzfIPJk37oQz6jMK1RQp7OX+hrQw7/lov5qBofx30/9UDO83xlvqtOZJPqG3nwx7Hf8/ysi0GOkKjhO+Zp8loYSNxubz5Zkkuh6IUomEfu65v3ZRv3jUAAxgEtZIawWCtACO2wKiX5R6uRVjI9Hg7PYpvwOuYr4k3Pit4dQ1kwzCFC3puFl6zcJ3JpWL/huOF7UmZ+fVgyyt97o64uvdcRQSmkxm2d0nb5tcwzwjiiOu6Q31YwVmi8UPkomFef77u/wuRYdk0hnPf6y8xOOMhFfiiVMm8xMsHL9uGxU3Bd4dwWVjT/Yj/fsHBYRsn7EtTxk6/mJjWkv1MGKJdEld16vdmJh/iZOFkAyDDKaz2hhOAJsEN+m5UYJI4n6bgy2LJT/mTNpW+wRCVn9e4pP/aYfhZg1b2AYhqIEBsXssqeIjVIwYsxeo6ZZZglW4BZY/OAyD72IzsiX8cwaLJ8Te97aurlXHtRM+YFmLvbZHPfNfei3+T5OoS8rTHhCXgEi82zifSiUTzGNIHeF7Gw7dKzzc77lbeSh9IaLxnZJCXbnVzvwyCDjt7JIr/WuEGxpQo9nroLHfAdmVBnS/qrL/DHA/3ea32uhX2jxrWeZxxk+fiIz6Pdf1/eCxlkvtab8AQ8YnKfRC7GE4/NnwR5c5dEK/n+1GI865dm991l2WFGTSmYES3EZoaE1mahkgM0kTtu9F4dwzp1HrrqBN+XxXCD7IXwnpTXUw7zUwTrPsxahN4rc0yXnml28el+bZB5W3Mip/AIOhsw5TQMXOXxKU2GaInZieEA4szPOSEXugptVTJXsiiXDX0rdfalmpxuGxAMs9BabCJkJT2Qqy/MW8tzNGbKKjWeY3fPPtZ3RZiiAA0AE6F3d9IhrTPXRVdQHCmBeEQYyJShKvZ8p0M7uUhEzEJeIVmlfd4JPm7dtAoJIUyXnOHzFYOaUEfoTvuZ2Xp1WDDYB+Qj5nnyIf54rnmKeGJE7ATM78SK8wF6fSXIhgfX9+gzjFl0DZ6AN+ARcVZUZiAxMMBGWSDz6JKofAwFnHVcPvfRsGEWQNgYGmBjwMs4x9LmJvgx/EePBhNpKtnw4COer5SxOW3bkveUeT+25o9tYBrnIECDJ8ngaT9tf0J0SXjFmmgvs3VaRGDJQLokJuHYKJEK3qS5j3YycVrjmxyuzo8a7Tsv1vr/JXQ3VvY3EbJv4UI/M4T9nKDfBkosxmQLefYSy6IE+/19Kg7fm4CM809tbWApuiL8Aq/AMyYvsFHWjvn9hlbX/nj4AZ88r9PWGv0QE5Scd8IZ7xl9CFQEJTAhzxGwa5tcGvOWMsNYbI3D3Fpmpv3kK/9M+O9DmPl6DTaQjAmfAzn3ZM+HRudF90RtxCvwDBlI3+QF7u7bfTtujoFtciHkuzOmzsFZ11+eX+yjJGHCvBeHV7Hgi5Zi02EOiHzNotyYX+qxnGUt7gV+tAA7JPD/s5+mx/epE9FjZhfkpvZw+2BaA2F3IZap04Zu4DRwH+RZSYuOXkhWGRtcISFb8bvIW8uTq317yZNc2Ph/V5xj9uCqZgYlFMnyFANZ5jvmkp+9DmNFz5hdAzAhdv5tcm85IC/ZWZphrH57dg2D2kjJwSvwjEmz2Nx8dWGPRbPhrPXIo2zuo/25BsJ8BWP27DfEepheoWVMC5tFg3FWuPA8YRt7xB+hmz+vR2POYWjx1qV59FUf/79uZNu9r2oFfvTas2soeAResRkPoopun9+qM9cDa5JgXvH7vJWswpeJEkN5CNVdt7Q/OzsRuUVLm00Ts4n4qS9pJOQLw1hsS373bZadv91txvCbxOLOG69u5bFwY8ZAaPCA8qYrwiMyzwgD2Ta/FT1AhWZLCNlui2wSPOXHdZf5417Gl6NVfP0Vvp15Y8NM2yAL6DXQM2MuJLvWQ77wG3C0AIs9Gz95XoB8Yfg5yqroiUkDoT0TBtJDdW8uUQGXXqzKuA4pPzhKdNmlvsCyF8JsGGbh8B8NYTlZzy7l6Z03e4pr3RCvu+d2j2rjfbr9v02AMrbiLp8HmVPoeXMIj2BF+gKq6ML8geiRm65qtbiFQ35QERnGYquMbon/x8JBKrR6HwXW+nAL+60xNwRdl7k8D+kps2Nydt658nWSbBhrpZsryEBmJUoe50ath4FQVXlQfFJ0wS3LTOOmHSD0lrMsJvcE66JSRsW949Z8/mN+V/+tMWS9kFRT77zV5zOyXXS7yaC8Rt9zm9nqld7ilki2IB9Xr/LhwQzlTbcQiZX1QJhR1xBWL+SFjAVZMpCpZD0yhgXudMHqmjxP773dI466FsgGQa+M/GHPNegmeyIM+q7lPrTYzf9pCuQFPTlO1Lzr1vyaMmg2OvZA2F0xy894lZgeCh0H1GT7NJFjyrV1SXly9/LW/dmIikv4LwdzNX39RzvZmTMLPH/YKsYvTnnJuuTPs4U7cyBZnqrB02Kt58lDq1tbmshAZoXaTC5x/EfWA9mEO/lFMQtZAZvwVb2TvQ/l3FTWusn2sxaEbTtoEVKxla1TiW1Nut2GPPKPSCOi2pSn60Jv+eGHfXNJ0TUUIzxjEwxki7YnRRfQ+4jtsTOiJ6LkTPhcRrdEy4/eB5PvkxFY7e/d4DRvwtcthIF0awb0lmnwZOtHOrxv0xNlj10PoOvgBAFbyED6hGEEQk0JVc3Sg0qTKc+PyaGWHsBASLQK13nfBidMIzOCFZblTS8w6c68CUEN9Eba37vpac2D3usFGUhPbDGx125r35vu7Gs13wcri7ZIrbCnPN/svZ8322wLH4Lqda1BhO2yYeA+/+o9kSzkVEySTUwmoXrjB832eFP7s53BdFijcMwBZkd9x2yjTVNea2OdSchTjIAzZ/b6gtnjd8mjsWYov1FWCYte8p++4jpbSKh5kEnolTG8t+uLzd73RR9VyPK0SyMJDSFIYb+P+3G52c7c9S674RV7YSBJBi1lXb0n0QdlIAH75jzyUGvoRawLk7697qZLK7vmlW9OYAhEU/XUUk5llF6LjGN6MA3ytVcaaiDhFf+GgSQ5tY8VLtaSQRuIEEI03EC+gHxu2vakEEIIMRubykCEEEL0gwxECCFEX2QGslH7VSGEEGIWFmMg2dGEQgghRA8sKvZAahuBJYQQYmCEV2ykHogQQoh+2FAGIoQQoh8yA+GMMiGEEKIXFmIg2slJCCFEr0weKCWEEEL0wnwMpI8txMTIGcSmjYN4j7oxiDwZxHsIUT2yHojCd0vKlJ1+234lnsvOeVhpdsfNZjdfa3bTNWa3XW+24m7f1Xad3VcL78H/b+JOwut87/Z8fcTzjtMUl6e8vDnl6S1LPY85U4M8Xyff2vK1iayTr0XyssoW/xxzfMt1qaxenW6Xpce3+QFi65TVAjO+txgnE+zG24ifpiq78UZlKZ7zwFkZHM60PFW8qy80u/4yF7XlN/rhS9kvGL/ihOsZW1Nv/jizLbcz2+ZJZjs9w8+QWLTYbP1FrfemYrM1eE/bg1eQyKPi783pfqvuM1t6qdm1F5ndeJXZrUnU7rrVD1/KsrSQr7BByr8ttjbbaseUn09O+frM9Djl8fob+nkmQVPytf17cobLqvv9DPZrU1ldeok3bDBjTLlTWeU32WRzL6tb7WS2/VM8XzdO1xaxSi3eu8NvOG4auhvvJBgI3l/zYl4NA8kOs8nPz6Cy3HGT2XVJ3C74tdkfTje78xY/vCoqXVTAdX69vIJOttzW+nkQmMeTnmO260vMdnmu2WO2aZlJdjzvvJYQ1AW+PyIX55JguLcn473sHLPf/8rsqvPStfwM9vj+WR50ygfyM7+NnghlCKN++h97vm6XTOUxW7f+S/E3rROZcVir/mAY9IIv+k1Kp5ndcBUvsuzApixPyVteOF2+FlNuSts91Q96Im8fl8xl8Wb+8kycJ2Y+TGtUNNxAHsJAOGG59qG8ZTYQKiOViM+4JhW8a1LL7cJTzc461lvFCzcwW2+hV8aiOXTDpCFwu7bVm9kkVcZnv9Tsua802/lZqbVXqJx1ETzyMowDgbvy/GQaJ5qde5Kf1455Zr2GPG/CHLqhmK/kGUejMhSzzc5mL3i12TOS6D1hV39dZs65iFadzJDJ1zz05sarkxmfZfa7ozx/yT/KK4eJTZbVyX9mgTwqPGQokaNmKfdP/yOz3VNZ3WW3ZCY7tp6nrI6z0dNwA1mNgSRZrf9iwrIaCJUgKuMlvzM7+/hkHL9MgndH+lFSj2HBQv+cnIDYVSWcBSobeUEB53xtvj+tvOcn0XvuK7zyl6FizoVir4Pf/NwTzM44xuzi0/17cyxsJux5L2LOkKe5QWDQHJH66NQr2f1VLnpP3t1fVvytq0ixccHc0FmprJ55tA9TUVY5Lhcor4PI10nTnfCeI+fC7/h0sz96rdluLzfb4vH+d0jj6o003EDuw0BScbdN2p+pG6UzkFzk+Fy3Xmd24g+TeRznw1YbPaol8oOoiJ2YHFaYcMFbb303kj3enFrPf+Kvme3M7TJS/E0Z+jvlJ96bQ7w33CQ3lyFW7jBo/t6KlK9bbGv2vD8ze/lbzR6b7j+Sm3PHoZwSE+b34Cqzk39sdvqRqad8URLLDb0nR55mPekhQTkk35i3wkyelHoif/LGVF7f1GoMjKOsNtxA7sVAbkt3HtP+TN0onYHk/PqnyTwOMlt2uVdEhDyLoBqScXSCljp/b+V9ni8vSC28N/ydz5lwvSo9kRARotCO3Mfsd6l1fFcq3YtpHiEyI6zUmZHkgkvLefunmr3qHWYvfL0/X6V8jc96xXlmv/hO6imf6UZIT27YxtFOzFXdf58P6z7zRWavT2V1u6dM7SGNioYbyO3I5/3tV8XwCGO4/16z/T9pdsgXza6/0lvHFH6GQEZpHsBcAUNki1PPZ2US3xMPNvvK+7yFWSWRQ1yYHP/aB8xOOMiH6Dbe1L/bqCs0n4dILoYg+W1vuMLswM+ZLfmM//bk66h/557JPx+f9bgDzb79EbM//DYJ93oukpTVUZoH8PdoYNG4ob6cc4LZtz7sPc1J8yh7vtaH+2UgIyRacsuSmOz9frPTDveWHKGKwxyu6goE72EXPCaWr77A7OsfNPvtEYWXjPPzTUdB5E45LIncR5Px/cHDagll5juNU1Cy+as13rtck+6fdpgb3E1X5eY8xs82E9lvPeG99v0/ZfaTvX1IjiErnhq1IbfD3yf/FqVe0J23mv3w86kx9iXv7fG5yXcxdDIDYRIdSlqUq0+Mu1PgLzzN7Jv/4Os5qIzZXEeJCnuYBILHUNCBnzU7/NsuxGVrNYfIkbeH/6/ZQZ/1xX4L1/fnyiQi2aT+PB+ivDr17L7yd2ZXnGsudiXKU8iGZSZ8PczX/j41Io70ckrDIiIGy0D8xnwuIrWOXWK278fN7r3Th5XKVK9qRpSAleqBDJu8kFMBz/yl2Xc/4es5aCFnFaAklbEdPhcVk9tf7Gt26JfzkEqeK0PFXOsiR/gsn+3n38hDneeVO08jX++9LfXw/sEn+DNjLkOemosueciCyq/mJpflawmNLsg+11qfk6GOfedfPRiFIU2ZyFBZVeyBiCEQkVYUbFrIjMvTCi2LYMwGlRDBO+mHZj/e2+wBhghs/J8fzWAM/sdfMfvlAS4eZRW4TsQE+z5J7C7AROb5XNQ4ySah5/lWI9/8kNkNV3pYd1Xg8xMwwaLb737Sh7b4PlUqFxVjBQZyd/tVMRii50E46Q/+n694zlr1YxbfXqDy0esgxv9Xh6beyD6tKLFxVcwYDvz5t3xyd6NNqtnSZI6GMfv9P+FrgIiGG5eJRFldnnoe3/k336tq4aLx/cb9Qv5ttLFHii35d98+pcy9p4pztwxkiNCqZCsSom8IO1ywoJpCF0ME9JyO+76HHmfhz2MwkQjVZLz7mO95NE4V8xSy8fuFHj59QBK7pRe7iYx6gjpr0Ez4xoYHp4bO0jwIoUoNnSKYCAsbabj98At5ZOMjWXEVg0UGMiwQVlo/CANzHowjV1XoIIwC4zjsa2YXn+H3RxnmG4vwWK3PpDl5WnUwC1r6t9+UxO6LfjvKCeD4XdmG5ejv+j5WdVjHQP4xrHnG0R4EQrmpqiGWmMxA7mq/KuYIwz5JWA/+XN6aWzQ6QRgmVEBayIzdf/8zPlE5KrKexwJvpf/0G0nwVrcWQFYdjJGIvMvPSb2q73pgwKiGXfg7GBZ7WTHPhXnURWjJPyLyWNd0+i98PiQL6xaD4q6igYyguNafrOU24WPz551c7aGATmCE69FivsHsB59vf3Y4IATZNhb3mx21n6+hYHK3DqYcZC3mxWYnH+p7oY2iZxcGtewys598NZ+fK1yvOlFuOIfk6P08KIDtWKreuyoBUUIyA2ErEzEAYiKSeY/jD/KFY6MQglHDmQ8IOGtaaLVm14YoOtn4dXr/Xx/m+4WxV1jtRGCt10rmmQ77um+NPopeCKHZh37F90NjUr9OjR3g+zACwFZBx+zv5abMod4V4zYMZHn7VdEHa70VSVQN+wVx5kQsaKsrfLej98/H7RG7IYhPmDKHaGHK2Y6vNc3TbFJ9Pd9XibU3TAYPs/3Bb/abn/v2JFmPrm6mnEO+EqnH8QhnHDW8stpAlstABgTmQfeY9R5MMG+QWj11FboAseOcDRbxwTDMktYiUTQn/8jXJ2DKdRq6agcRZ2sbxuwvSeVoWA6CgGZGlRo7628wnN+uLGTfjcCElLcnHeLHE5dtB4iKkhnIvSkxtTSkolp/KIgI3b13+N5R2XDAgnpXSsiG51K66HRfx5BVygG2YiP/rjrf85VDr5owCZrNMy00+9k3fUJ90JCvlNcj/9fsPmIwUYGaw7ArxxFfeZ4Pg8bWPKIvyDlq4r0UHe7cnl+sueQNh0xHJ3xn0MvO9l1tx7UgbJQgRAuT0N13h/cQMrEbYCkiT+l9HLvE55MG9b5VgIghJrfPPNYfD6oxEu9DIAJBHvxeTdHRbAv6TcxO/IGH1o9ijqmGkGMUGebOH8ZAUhW1GwpPih5gKIDWHIuwGGOlQDYpE/m+LIbjrIiL6YXMG6x5Xn2+n7PNMEvThhwoVyzcnGwtD6BgZeU1vdcvl+Q95fntr6gvlFVGBtjni8Ze5IXoiSiFN6b0UPRAeFB8UnRLXgAvP9uHcbJtNQYooGWHSslwCzu3cnQsj7NFWwMqSccfbFkeN808gKK1/Pokdsf747nmAf8fg+ccczZJzIZeGyag2cmUG3v0ILtDiL5hFVjWA2Hg4fq2J0UXZGPJqQKuSgXxrOPybSjmWMmrCAc2ESp56Vlm1+aHUA0iyoVQVgISmtRKLkJrmbUvp/68/Zn+YB4AV2LRIJFzdY8SnA7KJ4tgzz+l/RnRBev0QChWGsKaA3SJz/+VT9I1qfcRYBaEgbIB3yVncaH9Fb0RonbqT30OpGmt5CL05jBSJn/nsj15NnyzXmp13+Mr3mO1exOheJEX7OnWRAOdI5FjSfW8BwJhIKIHoqXNpm0IXZPJJtSTiVz6O7O7b5/7MBYChykPoidTVWJ48O7lrQnvfvMj632Y9+iynXbz82gayVovn2yLQzCB6Its1CoM5Lr8tqlFqm9W32929gk+hNNv5a4DfHf2UWIy/eZr8mt9lKaY2GRCnhBTWt1NJlsH86APDTKc1bcxYz7p/11+ngd8sDN0X+9TE7LO11pft5XdbXDd7ZEoNZlnRPW80zwaq6Gjzf1z61KzG6+aQ8WuCdnk+YRH9nAmORWSx70SQzSMT3MeN/naZMhHItBuu9Hsyt/3N7+U/RbzfeHg9Vd41FzjyaMFL/xN/riPstpQqJF4BZ4xaSAca8usOo97LJ7NhtPPmt5KDhB/VlEzxr6S5al5q7cXyEu2g7nuEs1/APmH4GMg1/4hv9ZjDQ1Tvv5y31CwiSHRnaBssR4k9h3T+MusUGpQO7wiOwo9pG9FStfm95WNPUDkkTZnc4jGYjNAVo6v6OOUmVjRj8jdd6dHIQnLaimL4Ai/xVTZ1r6n8pab8C2pht99S94D6eX/1xF6zHlj5dIz/ZJMdVai1OAVeIYMZC4w/0FLuZ+hmlpCpZzvK9OX57NqvfQgomVNS3vFvc3YDqYrHvEAhduWefhpNozVZb7wuuwMl9XJgK7sw3xqTLbV+6rU4LnAHytfZmVaA0nFy67O7ysbZyPPIbaa4KwBjZ+2yARrgW9p32uFjNczTn//vV7BhedLDGPd1mvAff469mm7aWm+9kMtbWfCFxYyj5k91FD0bETJwSvwjMxAoppGQFu3RbOxRAZhICD/aJFNpicDWXZFjxsB8v/yQIQ7b/b1NL30XupMZiDr+Xg9Ka51Q7zs3ju9V5gdGtXl/609eZljvo4V/wxpyVy7IrxiftFzbzVfVMjIs4pYF9xydV7gJHQt1noP5Jalfs52t2TGk0rjPbf5/Ek2/6FSOAlmStTQndRSHnfbWs7zcMVdvt3M/IUykCKUOcKjly/zx8qbaSFnqJV4RF4KW0NYkDq52eIQrikbZyLPnVuWqcC1kxnBfG/RTS6u7CKP4iUIJHsUZeedT3lFs4leyF235BPptJa7yKAwmjuXp//HpoxTn240ZN9EKmcPrPatXeKa6AhZQ2nCI9i9PYML0Wlje95r8vvKxy5A7NTlXRdayw+s9DUhXZPnI9FXq1fk8x8qhS3WuqmSP6uy6cvuiAn3e5Zr+GodaOwkBXxotS+uzFB9no4oOXhEGMgjxR4IF8NAlI3TsdZbdYzvP7DKvEmnZt06kEcsXPMHU57qSJROhq/IV62tmUrMLbE6nyEXvzjlJesQZrHmITeebnstTSJCeQkyAGXPtIQn4BF5brWGqxjbYlv3iMSSgUxDFDBa19m2G8WLwsFkU8as7GUtSJ6HtK4feMANSGLXgqxA7Fidj+D1AkNeTBR3PW/SJCZ8aI8dtcWMFCOwGJzOZimjSEUbcWl+q6VGs7BqpUcKddO6biorexhqicJG67rJO8XOBAZA7yzmlrqtoISqUl7Vq5ueCPhQuesIRS02wFma32Y5FUUq3OU6833eebLb8tlIaAWqhTwDqQSt6bGlDLQGZcwdyHt1mEevJz7SU85MR7W6I2QLJpvdVx51ghwhZwg1WJZfyzwjDCSybGmeitdEBxA65dDM9Cp0gHlMDg2KdUDoeg3coKGTratpf0I4E4U8VSZ1IpTu2jxNXisaCPdvNk2kd0WvlVh0RxiIKvK60DpmvyaVvcFTbAuqXbgOUeLwBjwi5s6nGEhsXXdFfqsRUyGEEOEFV+a3k8t8iyYRxssGHUx/KhJfCCGaDR6AF+AJlxauZRQNJLopF1vriFt1loUQormEBxBcdUnbtXUMBKdhoyzGuYQQQgjAE/AGPKKjgURXhYC/6KpoHkQIIZpLeACewGqZKVMb7QYRznJ2SrFRh+ZBhBCieaD9eABegCfAlGmN6Qzkd1bY70QIIURjwQvOyO/PaCARzkskVmyFpx6IEEI0j9B+zv/AE9Y5paeTgcQSrnPzWy3pEkKI5hHaf17h8YwGAtFFOcn83FsZiBBCNA+0nx3tTskfr7OsYyYDOTGlLk8eEEIIUSNC8/EAvAC6MhD+I9eZOImFI+qFCCFEcwjNj/lwPGGdjkQnA4GYCwnnEUII0TyOsw5zH8F0BgL8h6PaLwohhGgMeEBH84DpDCT+A7Pv1xWfEEII0QjQ/ojA6mgi0xlIEL0Qbju+gRBCiFoRen90fjstsxkIHGkzjIEJIYSoFTEHfkT7E+3MZCDFRSREZMlEhBCi3oR5oPnFBYQdmclAwizusdZk+jpxwEIIIWpDaDzDV2g/TNtxmMlAAOdhe/fD8/syECGEqC9oPFqP5qP90/Y+YDYDCS5K6RbrsJmWEEKIWoC2o/Fo/YVtz3WkWwO5KaXjzd1oTdtzQgghqg/ajsaj9Wj+rMxmIDgSr+FAEVYkxjUhhBD1IrQdrUfzO25fUmQ2A4EYAzs/paUprWeaCxFCiDqBpqPtLB5E62HG+Q/oxkBiUuXqlE7Ir2kYSwgh6kNoOsNXaH1XQVPdGEhMrLAv/GnmM/Ozdm2EEEJUgpiqQNvReLS+q4CpbgwEwol+a77F+/zCNSGEENUFLUfT0XY0Pq7NSrcGQvcGR7rW3KFgVncSQghRekLL0XY0Hq3vapqiWwOB2MqEM0LuNvVChBCi6kTvA01H29H4WSfPg14M5GHzNz42pYvz+5XshaxNn3rtI3NMlfzmo6WvfFa+zko/+Spmpz3PekrVLbdhGGg62s59tL4rTBHsLgAAE4dJREFUejEQ/lBMphONxWOcq1LMS594g41SLqVvPm+B3/aS+P/crr/IPKvFtKy3/rr5N12K1663sNKVcSRQ9sir+bOU3yirGyz2+6IzlLfIK/I07neTQkPQlIrmMZ86Rpa6njwPJvbarevXQsqq7M13Mf+D2+SPSy+l89Inf2C12Y5PN3vjB8022dxbDvz4vUBhm0jf9oarzA75gtnqlZUtOEOD/HnoQbNXvsPsBa9pf7Yzax72ynvSIWYnp7R4s9S37moUthmQp5Q9jPatHzPb9okpfx7xcj0dUVZX3mN22NfNrrvY/z//Tzjk3/0rzJ68u9nffNzzhjwjdUNoyL13mv38W2bX/iEZ/AaVyePQ7htTeoX5+eddhe8GvRoI4FB0cX6W0hvya11m93ihUDz8kIv+XH9gxG7R4u4LWuNI+fLA/WYPrm5/ojNkIyWR1jVJvZDOkC+rVrjhdgtllLI6n2Viytd1yHThQTeSfsGI6IUsWK9SZTc+KRsn/rm1tL1r+jGQ6IXgWBw2tX7+uBJSSmEZSI8hfeM1aiHPCJWq5x7eI3M397ozn/LbY22jN1chYRs5g9CFiuVxaDbDVq8zn5boqfcB/RgI8IfI7nNSembhmhBCiPITws+uu881D9vt2Qx6bB9OglnQ1VmS35d5CCFEdQjdXmKtCNue6ddA6ObEH79r6lNCCCEqwJ3W6gT0NHQV9GsgQHeHxSf7Fx4LIYQoN6HVS8w1vG/tnouBBPtan+NnQgghxgKavU/7xV4ZhIEsTemH5u+luCQhhCgvceogmr106lO9MwgDYQvg7+W36oUIIUR5QaOLmj0n5mogMXN/rvkxiD0vRBFCCDES0GY0mkOj0GzoK/oqmKuB4Ga8x30pHWA+kx8LDYUQQpSD0Gpu0Wo0e85aPVcDKfJr8/3keU/1QoQQojygyWjzqSmdMvWp/hmEgdDrYFX6HSkdnF+LHR6FEEKMF7Q4NmpBo9FqHve19qPIIAwEwix+kdLppogsIYQoC2gxmow2o9EwkAb+oAwEJ2Ovz1tT+lH+WL0QIYQYL9H7QJMPNddotHrOvQ8YlIFAxBfzIZnh574MRAghxgcajBajyTTuuT+w0aFBGgiORojYcvNFKsQYzylETAghxJxAg9FiNBltRqMH0vuAQRoIMNNPd+nAlC4x9UKEEGJcRO/jUnNNRpsHGiE7aAMJs2CXx29Za5tgmYgQQoyOMA+Gq9BiNDmuD4xBGwjwgXG6g8wPK4kvIoQQYjREwx0Njt7HwOY+gmEYCDDGxlGJnzWZhxBCjAO09zPmWjyweY8iwzKQ6HVwWPuvCteEEEIMl9BatBcNHto0wrAMBOIDf8Lc/YbigEIIIaYQeov2wlDMA4ZpIME5KX3fhjQGJ4QQYpKYg0Zz0d6hMmwDoetEJNaXzaMAcMWhuaEQQjQYtBWNRWvR3IiCHRrDNhDgb1yZ0tfNl9CrFyKEEIMHbUVj0Vo0d+j6Puw/EL2NOAHrDzaExSxCCNFwYhE3GovWxmmDQx3xGbaBQGyseENKe+eP+btD/WJCCNEQ0FI0FW1FY9HagWzXPhujMBCIL8hmXsfk9zWUJYQQcye2a0db0diRNdBHZSDR61hlPj53uw14Uy8hhGggaChaiqairWhs9EaGzqgMBBijY4LnpJR+0PacEEKI/mG3XbQVjR3ZHPMoDQTizJD/SuliG2FXSwghakZMDbDzOZoamyeOjFEbSEyo32a+R4vWhQghRH/Eug+0lLM+RjJxXmTUBgKxuOXHKf3M1AsRQoh+QDvRUE6BjUXbI2UcBhLwt//J3DkxEJmIEELMTvQ80E40dGw6Pq4/HBmwLKV/sfF9DiGEqCJoJtqJho5tKmDcws3fJyLrJzaGCSAhhKgYEYiEZqKdY9Xwsf5xc9ckQz6d0q02hkkgIYSoCBGEhFaimWjnWHoeQRkMBDe9PKV/M8+QsXXHhBCipMSwPxr5MXPNHNpBUd0ybgMJIirrQPNVlRrKEkKIFmgi2ohGRtTV2CmDgcRiGJbgf8l8G2KZiBBCOGEeaCMaGduVjLX3AWUwECCDGNu7LKVPprQiv675ECFEkwkNRBPRRjSyNKe7lsVAgIxiH5efpnSAtT7b2F1WCCHGQGgfWogmoo1oZGka1mUykIjI4jP9p/l5vtwvxVifEEKMGLQPDUQL0UTujz3yqkiZDAQiAuuOlN6b0t359dJkmBBCjIDQPDQQLUQTIxKrNJTNQCB6IRek9K9tzwkhRJNAA9HC6H2UijIaCOCydN/2S2n//H7pMk8IIYYAWofmoX1oIPdL1fMIymogRdgs7GwrUeSBEEIMiYhIRfPQvlJTZgOJMcB7Unp3Sjebf95SOrEQQswRtA2NQ+vQPLQPSjsHXGYDgYhC+ENKH0lppbW2OxFCiLoQ25SgcWgdmlf6KNSyGwjOS2IVJgencGg8cdBxXQghqk7oGdqGxqF1aF7pda7sBgIRukb6Yko/t9auvaXOXCGEmIXQNzQNbUPjQu9Kr29VMBCIIav7UtorpXPNM7z0GSyEEDOAhqFlaBrahsZBJYbpq2IgENEJt5svrLnR/PPLRIQQVQTtQsPQMjQNbatUtGmVDATIWMYGf5/SB1O630o+ySSEENOAdqFhaBmaVrldyKtmIPCw+ec+PKWPW2sMUQghqkJoFhqGlqFpaFulqKKBQKxU/0ZKe1tFM18I0UiiEYx2oWGlXWk+G1U1EIjJJ47C5XB5un8PTXmFEEKUCzQKrUKz2Oeq0sFAVTYQiHC3D6R0rHkctUxECFFG0CY0Cq1Cs0K/KkvVDQTnpvt3r/nS/9PNf6BKTUQJIWoPmoQ2oVFoFZqFdlW29wFVNxCIRTjsH0MoHFsAVCoUTghRa2IJAtqERqFVsRi60tTBQCDCey9J6T0pXWsyESHE+AnzQJPQJjSqcuG601EXAwEiG/ihzjRf0bk8f1x5lxdCVJIYHUGL0CS0ice1iRitk4FAuP2JKb3ffJyR71jpcUYhROWIVeZoEFqEJtVuVKRuBgL8QHwvNiZ7n/neMpWNsxZCVI5Yp4b2oEFoEZpUK/OAOhoI8APy3X5kHi4nExFCjIKieaA9aBBaVEvtqauBAD8Yk1UHp/ShlFabTEQIMTzCPNAaNAftQYNqqzl1NhBgsoofcInJRIQQw6PdPJaYa09tJsw7UXcDgQjx/a61TKS2XUohxMiJIfMwD7SmNqG6M9EEAyEaIqKz+GEZl1xhMhEhxNwJ8+As878315iItqp99GcTDARiy3d+2CXmYXX3WE0jI4QQIyEiPtESNOUAa609q715QFMMBKInwndmJ8x3WWuxoUxECNELMapxW0p/az5hHg3SRpgHNMlAguhyEpv91pSus5qtDhVCDJXY9WJZSm9L6afW0CHxJhoIhImclNKbzDc503kiQojZiPM8Lk7pzSkdbw01D2iqgUCsEzk7pbek9FvTeSJCiOmJ8zzQCsyDva1qvc5jNppsIBDrRNgh869SOtpa54k0ZhxTCDEjMX+KNqARaEXsqtvooe+mGwjEeOYN5uOZTIbxuPKHvQgh5kwcWocmoA1oBFqheVOTgQQRnXW3eUTFV/PrWrUuRHOJ1eWAJqANaEREWzUeGUiLKCwPpvTRlD6c0v2mwiJEE4lGJRqAFqAJaIMalQVkIFMpDll93TzM9yZr0MpSIRpOcecK6j4agBYUnxc5MpDpoaVxREqvTek8a9gKUyEaSHHHCuo8dR8NiGEs0YYMZHooTOTP780LEouFKFjRQhFC1IcYYaCOU9ep89R9NECNxmmQgcxMrBW5OaW3p/S5/FoMaQkhqk8MWWEU/2Ve16nzjV7j0Q0ykNmJMN9VKX06pXekdGt+TSYiRLUJ86BOYxyfMq/rCtPtAhlId0REBmOhh6T0CvNVqBQyUBdXiGoRdZY6TF2mTlO3qeOKvOwSGUj3RFeWAnaReYFj7/+4JhMRohrE4kCgDlOXqdNxTcNWXSID6Q0KXhS++1J6b0p7mZ8HEIVPRiJEOYm6SV2lzlJ3qcPU5WgEqv72gAykP4otmP1Seql5Nxi4rrFTIcoFdTLqLHWVOkvdBY0g9IkMpH+KY6iE+708pW+ar1yNreFVKIUYL9TB2IKdukkdpa5SZzWHOUdkIHMnojg4E/lD5vvlcL4IO3cylqrxVCHGQ9Q/6iJ1krpJHaWuKopyAMhABgMFkW4wrZwfmZ8VsMS8kCqiQ4jRE5GT1MEl5nWSukkdpa6qTg4AGcjgoKXDOCutnUtTen9Ke1rr3HX1RIQYDbHYl7r3LvO6SJ2kblJHVRcHhAxk8DDeSuF9IKXvp/TilH5symshRgV1jTpH3VtiXhepkzptdMBI1IZDDGmRLjdfvf5O8xZRoIk7IQZDsS5Rx6hr1DnqXtRDDVkNARnI8CiuGaEFdGBKu6d0WP44QgfVnRaiP6g7xTpG3aKOUdeKdUyNtSEhAxk+UXgpzMtSepP53MjF+TV+A8ZlVciF6A7qCnWGukMdoi7taV63qGNci9eJISIDGR1RmBmLJRrkJeYH1dDlJjKE59XNFmJmqCPUFeoMdYc6RF2iTmldx4iRgYyeWDdyh/lRmW8zP7QmQg45NlMVQIipUCeoGxEaf6R53aEOUZe0rmMMyEDGQ0yyE1Z4gnmM+rvNV8cuzJ/TdihCOFEXqBvnmy8IpM5Qd6hDmiQfEzKQ8UGLKrZYoGV1QEp/aX7myIr8ekwSCtFEKPvUAeoCdYK6QR35nvkkubYMGjMykPETm7xRGa4xP/XwBSl9x1qThEI0kQgyoS78kXnduNpaq8nVSx8zMpByUIwqAaJKPpjSC1M6OV6Uo16JqCPR2yhC2acOUBeoE6CoxRIhAykXUYGikpxhvnPoG1M6N78WvZKIRhGiykT0YTGknbJOmafsUweKjat2kxFjRAZSToqVhAp2eErPNW+JMYnItQhZlJGIKhLGAZRlHlO2/8G8rFPmi+VaxlFCJvbaTdpTAaJ1RoXbMKW/N180xapbKMbGC1F2Yt4vGkFnp/STlP7H/MyO2HxU4lRyZCDVIlpqVK7NUnq7eVTKi/LnY1JRRiLKSHv5/I359iMHpnSXTR2eFRVABlI9ImIrdhZ9XEqvTemvUnpZfo3nqIzRwhNinGAINHpYswEnpXRoSkeldHN+LbZalyBVCBlIdcEgYg0JbJnSn5jvQvq6/BqVFsNRKLAYB4gLKeZaWT1Ob4Oex635NRYHYhya46ggMpDqQ+WM6BV4VErPNl/ZzhCXEOPmIPPFf+y0cE9+LRbKyjgqjAykPrSHOdKy2z6l95mbCXMmQfzo6pmIQdCpPDGngWnsm9JSa/WU28upqDAykPoRlbj4w25qfrTnnintbB7JFTA+HZOXQnRLBHMU59mIoLrK/BTAA1K6u/Bcp3IpKo4MpHm80rxXQqz94wvXI7RSZiKmI0yD22Kk3/UpnWO+5chxheui5shAmkN7C/BJKf11Sv8npWea91IgImZi22whKA/RU40eB72LC823GzkkpSvy6+3lTNQYGUjzCBGIMGBakq8x3zaCfYeek18HXhMLvtQraRYIQyxQjfBbOC+l01M6MaWjrRW8wWui8SEaggykuYSRFCs98yPPM1+Y+IqUdsqvQ6wt0RBXfYkhKlLRNK42P3vjtJTOMp/ngE5lSDQIGYiIHgZEa5JrT01p15ReldKrU3p0/hwgFrxGRlIPEAFScciSU/6OSenYlC5I6ZL8NRDzH9FDEQ1FBiKKtA9vARFbW5ubyRvMV73HfEk7FCaZSrmZ6TdiXoPV4WxkiGncZB5ZFWiYSkxBBiI6Eb0LUnFfovVT2sQ8guv15j2TbfPXtRO9FOj0vBg+UbnbexcB128w72kcYR5Jda/5aX8BDYrooUgsxBRkIGI2wkg6CQiixKQ7k/B/mtIuKW2U0gbFF1kr9LNoTGLwFIWePG43jdUprUzp8pSON58EZ1K8vUcx028uxCQyENErISyd2MI8mmuPlHbLHzN3sqjwGohhkJiQl6n0TtEsIi/bN89cZT6Xsdz8kKZTzKOneNyJmX5bIdZBBiLmSnGYqr0ly0T8883PLaF3wnDXViltXHyR+f+LhYzRcpaptCgaRdxnIru9h3Gf+e62DEvRy+CcjTPNJ8CL8P+i4ksARN/IQMQgKRoARFRX8LSUnmJuLIQMP8F8vy6MpZ0wFWjvqdTVWIq9ijAM6GQWgFFcl9I15qG1GMWl1jo/PIioqaIBCTFnZCBimCB6kTpt2U10FwayQ37LuhMSj0mdjIL3iIn9dkOpgrkUBbxoFjDd6n+eX5on1mSQMA4ec0u0VBHeo7jbbXu+CzEQZCBiVCDs0ZPgFhMoRngBAvrYlB6TJ+ZQMJQnmhvKdvlt+1h/kU4t7JlMZabnuqH9bxVpf242gyM/lqa0LL+90twsODuDuYzbU7otf10R8oMUPYy4FWKoyEDEuCj2HmJMvn3IK2ASnuiuSKxDoceCoTD8RdomTxysNZPBjBOEHzO4MU8MQZEwDHoSrMMgSioSk+CdoHdBvhWHpFSRxciRgYgyUWyhx217a7sdzIIFbpEQV0yG3gtmEpFgmE4kzkZZnKcIO8ak+L+8X9zGdh4srORzYHBxi7hHWOyKPHEGBiYQKSKgMA1ueS3/l/eL1M33g6ioMgtRGv4/NtkXcb7zHM4AAAAASUVORK5CYII=;" vertex="1" parent="1">
          <mxGeometry x="220" y="82.5" width="55" height="55" as="geometry" />
        </mxCell>
        <mxCell id="nZGiTTlPK6p4zg9V-APO-39" value="" style="edgeStyle=orthogonalEdgeStyle;rounded=0;orthogonalLoop=1;jettySize=auto;html=1;" edge="1" parent="1" source="nZGiTTlPK6p4zg9V-APO-14" target="nZGiTTlPK6p4zg9V-APO-11">
          <mxGeometry relative="1" as="geometry" />
        </mxCell>
        <mxCell id="nZGiTTlPK6p4zg9V-APO-14" value="nginx-ingress" style="shape=image;html=1;verticalAlign=top;verticalLabelPosition=bottom;labelBackgroundColor=#ffffff;imageAspect=0;aspect=fixed;image=https://cdn4.iconfinder.com/data/icons/logos-brands-5/24/nginx-128.png" vertex="1" parent="1">
          <mxGeometry x="120" y="80" width="60" height="60" as="geometry" />
        </mxCell>
        <mxCell id="nZGiTTlPK6p4zg9V-APO-41" value="" style="edgeStyle=orthogonalEdgeStyle;rounded=0;orthogonalLoop=1;jettySize=auto;html=1;" edge="1" parent="1" source="nZGiTTlPK6p4zg9V-APO-26" target="nZGiTTlPK6p4zg9V-APO-30">
          <mxGeometry relative="1" as="geometry" />
        </mxCell>
        <mxCell id="nZGiTTlPK6p4zg9V-APO-26" value="User" style="shape=umlActor;verticalLabelPosition=bottom;labelBackgroundColor=#ffffff;verticalAlign=top;html=1;outlineConnect=0;" vertex="1" parent="1">
          <mxGeometry x="30" y="304.5" width="30" height="60" as="geometry" />
        </mxCell>
        <mxCell id="nZGiTTlPK6p4zg9V-APO-28" value="pomerium" style="shape=image;verticalLabelPosition=bottom;labelBackgroundColor=#ffffff;verticalAlign=top;aspect=fixed;imageAspect=0;image=data:image/png,iVBORw0KGgoAAAANSUhEUgAAAZAAAAGQCAYAAACAvzbMAAAgAElEQVR4Xu2dCbhkVXW21+1uGhoaBFSQQQZBcUZF1Jio+KvRqI9DEjUxDmgUjTFGzeT4J1HzO0RxjEEQaQFFFBUQkFkEBRllkHlqmrmZoZtuhqb//Z511q1zq+veW1W3hjN87/PsrqpT1XWrdu39fXtYe++JvXZba0KUhIk8xX1Yk99Ox/yU1iukBSltlNIWKW2Zp81S2rTtdnH+Om7XT2lRSgvz/x/vE5+BSvJwSg/ltw+mtCqlB1JakdLK/PaulO5uu701T8vz18X7ROrm+0FUVG5VaUUpmJCBiDERZkGaZy2R7sQG1hJ8EiawQ0qPT2nb/HabPGEYvF8ZecTcTG7M0/Up3ZDfLjU3HUwmEibViTA33i8MRRVZjBwZiBgVYRRxS8u7vfVNa/uxKT0mpUebm8FOKT0xpe3ztEP+uunoJKbRk2hnuuu90v73gvbrxR5WJ8iPpSkty2+vTOlqc9O5I6XbU7otf10R8oMUhhK3QgwVGYgYJhhFJHoXCFuRra1lCtxiFk9Iacf8Wiex5T1CQIu9mOLjMlM0uLgfjzGBTr0nnl+aJwyFdF3+mNub8tcFvAe9FPIqkhADRwYiBkkIeIhg+5DU01J6cn67s7lZYBwMQ7WD6MX/j55Lu2HUjaKhRE8CMINOxsLwFwZyTUpXpXRxSpflt0X4/1Ac8hJizshAxFwptv7bW7pPSen5KT0vpV3M5yi2SmmT4ousZRZFA6qzUfRK0VDifidTuTelm83nVy5P6ayUzkzp0uKLrDXnBBIA0TcyENEriPp0hYbIp5entEdKu+WPmcsgwqkIQ1CIYXvPQnRPe0+FvGyfG2ISnrkTIsDOTemUlE7MH3dipt9WiHWQgYjZCHHvNPSBaD07pdek9ErzXgZRUkRNFYmWs8xiuBRNJXpyRVabR3fROzk+paNTOs/W7TnO9JsLMYkMRHSiKPTFiB/WS2yc0nNSel1Kr01pu/x17SBKcb3T82L4ROXmtt1MgOvLUjoqpSPNzeQ+8/UtAb2aojEJMYkMRBSJYRAWuAUMPzF3sWtKrzc3DRbidSJavqK8zPQbsfARMzkipQvM51KKa1FYYBnDj0LIQEQmJjF2XoyaIlLqmSm9ynyIirmMIHoX0wmRqBbRuyj2Upg7YYjr2JQutKmRXRHVhZlIQBqMDKS5RG+j2KJkHQZRUy9K6RX544BeCf8nJr5F/UAMKAskehsB605OSOk086guHkOnMiQahAykebQPU3GfYSmip15oPr8R8Jroocg0mgXCED2MopkwT3K6eTQXw10xR6bhrQYiA2kOYQDxgz8ppb9O6aXm8xvsLwUhAtOtihbNg/JAuSiGCrNvF/Mkv0rpkJSuyK+3lzNRY2QgzYNw2/el9FzzTQiDWMinISoxHTHExW3Mg8D1KZ2T0ndSOq5wXdQcGUj96NQCpHexZ57YmHDDwnPRspRpiF4IM4keCdxvvgHkkjzRSwk6lUtRcWQg9SGGm2IMmrMttk9pr5T+1qaG3saPLtMQg6BTeSIkeP+U9jXfr4szVKC9nIoKIwOpPhEZFSG4j0rpWSm9O6V3xIuEGCMHpvS9lM5P6Z78WnG3YFFRZCDVBdOgEkbLjn2nCL99u/mCP9B6DTFOEBdS9DpYoHiQeThw7MdFT7nTVv+iAshAqgdmgHFEGO7jzMNw32IeiguxZqM4Pi3EuIjIvggHJgT4UPMw4FvyazyHkUiQKoQMpFpgCDF5yZwGvY2/NO95QAxjFSNkhCgL7eWTnshh5r0S5kwimCPWloiSIwOpBhFeS8UiguoDKb3J/JwNiAVfMg5RBSJkPHrInFvyk5S+bR7JxfUIFxYlRgZSLVi/8X7zPaowlOiNKAxXVI32sst99tzax3w9iagAMbklykXxd6FyMSnOQq1vmUdYRW8EtM2IqCLFHkisRaJsU8Y5/IoyXyzX0qoSoh+lXMTvQWuM4agXmE84Hm5+wh/XIrJFxiHqQBhJlGvKOPuxUebZwJE6ECG/IM0qEfoxykFEVkUleWpK30zpjJT+T7woR2G5oo50KtcvM68D1AXqBETjqv21YgzIQMZP9CqYWHxCSp9K6Xfmcx2aSBRNJuZJqAtsI0/doI5EuK+CRsaMDGR80IKK2HcWU73LPKTxs+bHxnJdk+OiyVD2qQPUhcXmdYM6Ql2JBYjUIdWRMSEDGQ8x5suCPxb//dh8q4dnm68sV+tKiBbRS6duUEeoK9QZ6g51KOYExYiRgYweCjpRJxwR+7WUfmAecUJXneu0rNSiEmIq1AnqRqxqp85Qd6hD1CWuy0RGjAxkdIQpUND/KqVfp/SP5ntYtS+sEkJ0JqIPqTPUHeoQdYk6FaHtaoCNCBnI8InCTDd7O/Ou95KUnpZfU1SJEL1BXYmoReoQdWmJ+Wp26lgEnqhODRkZyPCg8JIozOubb63Olg1sQcJjrvO8fgMh+iOCTKKOsS8cdYy6VqxjMpIhIfEaDsWFUZw9/v08bVl4jQq1EIOhWJeoY1HfdrFWPdTw8BCQgQwewgoZi6UF9E7zHUfZaj0WCQohhgt1jTp3qnkdpC5SJ2M7eTEgZCCDg7xkXJawwqeYbwq3xHyiL/b6EUIMH+oadY66t8S8LlInqZvUUdXFAaGMHAwxZEVkCNEgTObtaa2QQ3WfhRgt1LkIjd/TvE5SN6mjqpMDQgYyd2Jdx0YpfT2l/c2jQuJUQOWxEOMh6h91kTpJ3WRfrU1M60YGgsStf2LijoLINtTsmvsh8wOftMWCEOWAOhhbBlE3P2heV9ndWutG5ogMpD8idBDem9IpKT0/f8x1bUMiRLmI7VBg95R+ZV53IcJ9RY/IQHojYsopcGx4uF9K+6b0qPxavEYIUT6ibkb9pe5Sh7mvNSN9IAPpnsgrCtrTzQ+7eU/hmgqeENWgOIJAHaYuU6fjmnSxS5RR3RERHRQwIjkYQ2XISmOoQlST4hwmdZk6Td2mjitKq0tkILPD2CmFbJH5eQQHma92VRSHENUnoiip09Rt6jh1nWuay5wFGcjMkD9Eb2yV0oHmJ6JxTeYhRH0IE6FuU8cxEup8HOompkGZMz10cenKPielo8w3aqOQcV3mIUS9oE5Tt6njf2Fe56n7aICGqKdBBjI9jIW+0VoFKVooKkxC1BPqdowwRMMRDYjJddGGDGQqRXP4J/MTz+jKxpCVzEOIehMjDNR56j4agBYUnxc5MpAW5AUtDY7N3DulL5tPpikiQ4jmEZGXaABa8FVzbUAjpJs5yggnCsum5vvlfCS/rsIiRHOJRiV82Fwb0Ag1KnMkjq0w3W1TOjilt+WPtThQCBGLDtEEtAGNQCsU5msyEAoAoXpPTelHKb3GfOdOzXcIIYKYF0Eb0Ai0As1AOxptIk02EL47BYCN1Q5N6Y/NC4hOLRNCdAJtQCPQih+br2Bv9FqRpn5xvjfjmC8zP2iGfXAoCDIPIcRMxNbwnC+CibzCXEsaqaVN/NJhHm8wD9Hb3jSeKYTonpg33c5cQ1h42EgTadIXjnFMfui/MT8rWXtaCSH6IdaKPNY8OgtNieisxsyfNsVAiitM90xpH/MzPBSOJ4Tol2iQoiVoyp7WsB0rmmAgxZWl7P3/7ZQWW0O7nEKIgRJD4mgK2oLGNGbniiYIKD8kk178sN9IaQOTeQghBkeYCNqCxqA1aE7tRzfqLqKxzmNPa5mHVpcLIQYNmoK2hInsaQ1YJ1JnIeW78QOyelTmIYQYNu0mgvbUep1IXb9YdCk5opJxyY1N5iGEGD5hImgO2oMG1XbIvI5fKiIj2Mf/OybzEEKMlqKJoEFoUS0jPusmqhFt9bKU/jelTcx/uNpHQwghSgWag/agQYT4vtxquOasTgYSq0PZn2Y/ay0SrNN3FEJUB7QHDdoipX3NtalWu17URVwjVJcdMr+b0o5WQ7cXQlSOGBVBk9Cm2MW3FtpUBwMJl+f4SXoebIwo8xBClIUwEbQJjYpjsiuvv1X/AnHYC+OM30vphdY6z0MIIcoCmoQ2oVFoFZpV+UPrqm4gfH4S4XKvMp3nIYQoL3GeCFqFZoV+VZYqf3icm27gF813wtR5HkKIshPniaBZaBcaVtleSFUNhM9N9+9DKX3UPFyuNpENQohag1ahWWgXGlbZdWpV/NCR+a9P6fPW2qpdCCGqApqFdqFhaFklG8FVE94I131WSt9KaUNz9xZCiKqBdqFhaBmaVrnw3ioZSITCcQIY8dTbmlaZCyGqS6xWR8vQNLStUksQqmIg8TnZW4ZtAXazik8+CSGEtYKB0DS0DY2DSmhzFT5kzHGQ/i2lP7fWIhwZiBCiyoS+oWloGxoXeld6fSu7gZCBJMYG2dHyH83jqOO6EEJUndAztA2Nw0jQvNLrXNkNBBgjfFpKX0tpI/PxwSp8biGE6BY0DW1D4/Y21zy0r9SUWYhx3tim5ADz/WNqezCLEKLxoG1o3Nbmmlf67U6qIMZfSWl3q1h0ghBC9EFEm6J5aF+pKauB8Llw3vem9J78vsxDCNEE0Do0D+1DA0u7Ur2MH4rMoxu3a0pfantOCCGaBBqIFpbySNyyGUiErj3afN/8TfPrpR0DFEKIIRCahwaihWhihPyWhjJ9GDIneh//N6Xn5ve1VYkQoomgfWggWvjv+X00sjQN6jIZCJ+FOOi/SOnd1gphK01mCSHECAntQwvfZa6NaGRpdLssH4RdKIk8eIr57pSL8+tl+XxCCDEOQgPRRLQRjUQrS7FzbxkEms9AhixK6WMp7WQV3JVSCCGGROxCjjaikWhlKc5UH/sHMB/nI70lpbeZzEMIIdoJE0Ej0crQzbEybgPh75MJu6T0hfwxSfMeQgjRIiKwSGglmjn2VerjNhBgLO+zKW1pJemWCSFECYnhfrQSzRx7RNa4xZrogrem9CbTanMhhJiNWKWOZv6NjXnDxXEZSHTHtkvpv23MmSCEEBUDzUQ70dCxDfuPy0CADGCzsC3Mv/xYMkAIISpG6CXaiYaOrQE+DgNhzoMu2JvND07hy8s8hBCie9BMtBMNRUvR1JGvDRm1gcQkEIfHs13J2LpeQghRcWIqAC1FU0cehDTSP2atCaBPWuvELRmIEEL0TvRC0FI0deSBSKM0ELpX7OPyMvPoASGEEIMBTUVb0diRDWWNykD4OzglS/A5NP4x5qsqR/X3hRCijqChaCmairaisWjtSLR1JH/EWl0tluC/Or8/0q6WEELUFLQUTUVb/yq/P5KpgVEYSEycb5vSR/PHI/uCQghRc6KBjrZ+xFxrRzKhPuw/ECaxnvkZH8+wEm1FLIQQNSGOxEBj0Vo0F4baUB+2gQDO+ETz8TkmeDR0JYQQgwdtRWPRWjR36AsMh20gsbjln1La3PzvDdURhRCiocS6ELT2n621aHtoDNtAgPN89zTvXqn3IYQQwwONRWvfaa69Q2WYBhI9jf9n/neG+beEEEI4obdoLwxt1GdYos4Hpuv0+pReWrgmhBBiuITWor1vsCEePDUsA+F910/p0zbkMTghhBAdQXvZJ2sDG5LWD+NNYwzu7Sntaq3eiBBCiNEQvY5nmp+jPpQ56EEbSHSTiAL4oLWiAIbSfRJCCNGRaLhjGmgxmhzXB8agDSQWs7wjpaeazEMIIcZFmAhajCYPfBH3IA2E92JTL/al55xzVkJq6EoIIcYHGowWo8mcYDjQTWwH9kbWOuuDzbx2y++r9yGEEOMjeiFoMpvZxrDWQBiUgfA+LKF/nLmB8JjukgxECCHGBxocGyuizWg0Wj0Q7R/Im1jLKF6b0gtN27ULIURZiO3e0WY0GgbSuB+EgURv49HWOmlQvQ8hhCgH0QsBNBqtHsh273N+gwIvSenF5k430Jl+IYQQcwJNRpvR6T2mPtU/czUQnI0PtXFK7zJ/Px0WJYQQ5SK0mlu0Gs2es1bP1UAiTJcZ/leah4ip9yGEEOUDbUaj/9Rcs2FOSy3maiAQpw1yOyc3E0IIMVTQ6KJmz4lBGMgO5otUFHklhBDlJtbrodk7TH2qdwZhIO81/1DqfQghRDVAs9/XfrFX5mIgGMamKb2n8FgIIUS5Ca1mGGuzwuOe6ddA+H90g/Y0/wBCCCGqBdpNRBZa3pcX9PWfzP8gM/p75vfnNJMvhBBipIRuv9PmsPHtxF679fz/ovfx8pR+YX7yII/77gZVnYn0zSfm5RnQ2FwQogKszZXzkZR6lr5aEZr9oPmxt8fmjwmG6pp+DCRiiX9m/oehebKJaeR3H37I0yNrPFEwG144hSgVWSMvpXnzPS1YzxNkVbWZ9TW+9ZHmWh7a3jW9Gkj0PnZJ6cSUtskfN8pAMAeMYk3K6oWLzHZ6ptn2TzZ73A5mm21pttGmqU+4sP1/CSHGxUOpnb3ybrO7bjW7ZanZdZeZXX1han6vMpu/wE0Fg2kYod03pvSKlC7LH3fdC+nVQPBstgLmoPZ/t/7nUCoFBQvTwDAYqqLl8uTdzZ7/ar9dtFHKmPW9EAohyg2Nv4ceMFu1Minm2WZnHuO3jCIwtIWhRJ1vCBjGZ1P6D2tpfFf0YiDhz/yBk1L6ExvSQe1lYt68fHgqZfEmjzZ71h5mr3xn6m1s3/5KZ7LQdZ2tQoihk6vXdL2MW64zO+77ZuefYnbvHV7vaShS72tOaPhvU3qZ+ZwIdKVgvRhIONPrU1qS0qPM/0hteyH0KB6432yD1MN45ovTF/+A2VY7tL2ocQN4QtSEDnX35qVmR3zb7MJTzVanHsr6G3qPpcbEhor3mEfVHmE99EJ6Ef/IbqKvWEA4kP3kywrmsTJl6bZPNHvHp8ze/yU3D7q4U5B5CFFN2uoudZs6Tl2nzlP3V95b+6FpNBwtR9PRdnKl615FtwZAFjI7v2NKL8qv1VY6KTD3p4Kz+6vMPrC32Qte6/MfDE8xByKEqB/U7ZjrpM5T95/3KteCmptIaDnajsaj9V19427lMF73xyk91Wrc+6Cg0HV9+dvN3vtfHllFFzYm1oQQ9YU6Tl2nzlP33/M51wI0ocYmEr0QtB2Nj2uz0s2LkE0ciQWDOBTjY3M+iKRs8GVizuPP3mX21//qcx9MotW44AghOkCdp+6jAWgBmoA2ZOG+7S+uPnwlNB1tR+PRejR/1q/ajYHwGsbEdjKPFYbaSSrd11X3mb3sr83+4h/NFizwMVGiMYQQzYO6jwagBWgC2oBG1HQYOzQdjUfruwqQmvUF1ppQeVZKO5jPznfz/ypDNmF+n6/reMu/5F3YR2pbUIQQXYIGoAVoAtqARqAVNRyVQO3Q9h3MtR5mnUyfTSKja7PI/MjauFYbKCCMb+68q9mbP9qK/VbPQwgBaAGagDagEWgFmlHDBmZoO1qP5s86VdFtFmxtfo4ujlQf701ZsyZ57uJNzV7/d2aP3tojMGQeQogiaALagEagFWgG2jGzvFYOtB2NR+vR/FnpViqfkdLjrMuJlcqw1sc4Cdnb9SWtaCshhGgnorPQCjQjWxM26yBPpUDb0Xi0Hs2fldkMhOxhZp6dGruaVKkSa1Jh2GI7s9e+R8NWQojZieEsNAPtQENqBiqI1qP5aP+MFjmTZEZPgy1LXpvfn+n11SNlzcvemr7gY8zXeNSnbyWEGAYTrhVoBtoxs7xWktB4NB/th2mVcSZDiKx5TkqPzh9P+0aVYsK7olumFsSL3mi+wrwe30wIMWRip160Y8vtXUtqoozAN0Hr0Xy0H6a1yZkMJHid1ck8LB/oe8hsj7eYLdygIeYxbREQypsh0W++9vv/RgiagXbs8WbXkppJSJgIG+fOyGwGwhvRleG2HnmUtx449Ol5EVdW1gK71j/rbJ8vTkCc8STEwq834+sawDrff5qS3VW+Bl3+VnVmnXzqIl87UoWymv/WaAhakn3Gab5vBQm9f01+Oy3TbeceDkQX5ty25yoNk2Cr708th780e9unyhl1FZWmOKlPyOADq3130BuvMrvlWrPbbjS77w6/9mB6jqgQDrbaYLHZJpuZbbaVD9Nt+6R0/7Fm6y/y5yf/DlEkiRrGs3ck+76pZBd7nBws9MAqP6nu+ivNli9L928xu+dOj/Vf86DnD/m20SY+9k0o51ZPSPm6s9mijX3L7/mF4PZsEWrb36krncoqj8lTtv64OZXTm65OZfUGs7tv8x2uuU5I7Pz1UllNZXIjyuoWZo99vNnjd/Zb8pTyWiQLdClZU5bvcfDnzE45LH0Xtn7P61SNeK65B4QnTGEmA4FPp/SfxSeqDoZxXxKHf97Pw/HKRFYZqSS5GNE1vjOJ2Q1J2C4+3eyK9DPedI2PuSJqRZGK2+zXzCt13PKeHLX7xGebPeUFvhBq82QuG26c/59H/P/VNQotKnV8P3ZXvTMZxhXnmV16ptmVv0/ilh7PW5AX/MhXbvP3iFbwZOs5Nwm2/N5ld7OnpnzdZmfPV7a+gEeSuEywd1KJBG9QtJdVwIRvTQZ82Zl+wt+1f/BGT7Z/VKGsRr5GWc1u8vKKIGPKT3iG2ZOfl8rr85OhbOPGHVD+y7QS/IJfm335vWYbb+6fv2b8R0qfye/nv1aL6QyEqka1O8385MFakE1+pW+14aPMPnGQF0wK7tgrOBWnsAaFVto1F5pdmHL/3JNSq/i61ALeIAnTwrylO1n7Jv/71J+2IHzxeG16/4cf9pYhLeln/HHqXr7MbKdneS8FskWUNRI8ftvi2h5aw1edb/b7X5lddJr3RBeu7/ma9cJ6zFMgzx5+0BNhnc99RcrbVGN2fHrK5zyGJWttl7Cn2y/FBgzfbenFyYjPMjvneDcNri8gX/nO/ZRV6sND3juEJ+2WyurLk6GktvAOT/fXx8T1OBs9oR2MBHz+7V5vY0v4GnFGSi+0lidMoZOBxE/OLPwVKW2eP668rCC+nIO8+5+avSt56qLFrUIwLrLW/1oX7lUrkmGc6IlWDaLEZ6SrH6/ru3BSUfMKR4ucYQSGveiVIHq7pbTVjv7SzMxK1MLrh2Ir9fpUis9P+XnWMUnsLnHDYLghE6LI0z7zNVrWCAdiSu+G4Zdnvijl6yvNnr2H/4aZ6OavqyrthnzRb1NZPcHsvNTIueOm1DDbxPM2e21eXvsl8orfiHK6KpXXLbZNdZc8fan3TGCc5hzaQb393v91A8128Mbcqk9o/l0p7ZLSbfnjKb9qJwOh2pEFbzE/unaDKc9WGPayuef29MX+2ey1e43XOKAocmcda/abI8wuTn7/UKowi2m9Tvhr5lIRO5IbCRX0gWSoD6aW3hNSy+55f2b20rf40FaVTYShI4ajVtxtdspPzH53tBsHprFwkYvbMCp5ZtDz/f3ZcG9hEtOnp97Ii97gBg1lG37pluL8A72MXx2aenInJ3W5zXu0NHKysrpOG3XuRFnFLPhNt3i85+dL/tLs8U/K/2Zu5OOA+nn0vmY/+rIPtTH0XCPoB747pR9ayxsm6WQgrD4kC76T0l5tz1UaDISx73/aJ7UO/3S8lXmy+3u92eH/m1rIp5jde6cbRwwNjIKsctL7yXcY3Tn1SF6disuuL85fEO2QihD5Sqv42O+bXXmeP46zXYYhcOuQ/t58enprPV8Xb5YE7+Vmr3u/2WO2Hm+564dsvmeeDykdc4DZbw83u+U6nwBnqArDHngjpwNh0A896AEOmMeL32T2qnf48+MYTYjfkt7HV9Lvu/mWtTKQqP37mXtBeMMk7QbCiynayNc5Ke2WElWuwh1vJytYE/6D//O+Pq467u1Lzkgt4yO/7WPzzHGst3B0xtFO1nJe6xWTjeJe/Odmf/4hN90qECLHpO3Pv2F22uE+Jp0NVfG7j8I42smNBMFDVLbeyewNf+9DqBkVMOf4iMsu8xb2Fed4XjNMN5TecRfE8BbDsAxfMefEVuvM5Y3aREJDCHD58l55w2DtePJlCIT2E4VFNBaDhfRAJr9du3yS9UgYY15bFq5VnwkXZ7qYtEbHQi5iVLxDvmR24Gc8aoXPw3DRuMwDYvhhUfosq1eYHX9QqhDvM7v9pvZXlo84u4Vw0a99wOy4A30YkO+SjduPwzxgbT4UuMBDUm9NrfbvfjwZ3Lfy33rC87yMhABS+c/8pdneqXV9+dleTllAx+cfl0jGXAx5ingzlPa1v/NbzCP7XCP+bNRhtCV+15oQ3wQveLJ12Ey33UDi8R+ZT6LXBr41hY7ImIgvH+XvnIlYyt0Vd5n9z0fMTkgiR6QJlZECP67K2E527sFCb0khGP/9tx65BOOomLPBZ0JE/nB6EpEPps98js9z8PnHZhxtxO8bvbkj9zHb92M+np9F7ZTkcwbRikcMf5F66/t93Htz9JCzXnxJPm80HOgNEQm1b/qcJxycPxlGMmRCQ9AUtAWNGaWujAi8AE+AKZ4xnYHsbn6gCD9BbfIj63ovyivCCIlu7u2pkH/zw2bnnOiFvqwhfyEg62/gFfObH/IopmjdleUzZ5U1faazjzfb5198ASBhuWUdQsg+E/m6yIMmvvVhX+dDOSiLKGdDgRM+PPSj/zb72Te81xFDnGUjymM2iZ8++yFfNDvif1plY1QNHjSF37VsjYE5EjmIF+AJMK2B8GLGt2gnPSW/Vp/syMWP4QQmjUdFmMfy613kLjvLo1bKIhgzQX7RQ1qRWp/f/aSHF0+K3Ygq5nTE5OXvjjHb/5Me6slvW0aRa4fPiNgwbv7tj/oq7Sy8mto3RjLxm+cT/wyxnvQDb0RUognJ757n6+HfNvvpN72cjqo4oCmT5a8K+dU9oVR4Ak1vSunkNywaCPd5cueUtipcF3MAYbhruQ8DsOJ58iSzioCoYCKrk6h8/z/NLjjVW6RZ5RxV7WyDz4R5nH1C+kz/0RrKGNfn6YfMnJPYXXNRMudP5CYyxmE38pTP9GDqefw09TpO/al/vqqJIfnHSvaj9vUAlSyAYszGXBPwBLyB3Jz0jXYDgaeltG3bNaygBxYAACAASURBVNEHVEgWLn7v02aXn+vmQURO5Srlwy4mjIMj2KySH1cYapjFJb8zO/izvro+i6SrkHkEkz2R87zFf+8d+fURm0gMA1EuCX0++VBvNIxqHmHQYBgs3mT+5vgDvayOOk9rRHjANik9te3aOkNYwGx7yv6pXRXRI2u99fPDz/u2GYs38ZXlowwxHBgTHoa6/ka+cGz/T3t01mTEy4iI4cAbrkj5+gUfWqvKsFVH0udmrQjzYeedmFrN+7VayyP7TvnfQWTPOMpb7jFZXmXR5bMzL3L4//gcWZnmmSoGikWpxBNiamOdISwuRBDpk/JbZXefRGvulweYnf4LD/HLjr6sonnkZFE5D3loLLsBswMpC8tGZYjZsNWEbxtx2Nd9g0kmzKsschmUlbW+XuXEH5id9nMXu8nnhgxlld+QSLsffcmv1aXFTmODdUGHfc3sukv9sYaz+iJKwxPz28lw3qKB8CLGuZ6QX9PwVR9EFAu7kf7ye15oR9aaHAGEdmIiF55qduyS/OIIvl/2J3JTJt4/VpbXgUzE53mYL1FPV57vZYjeyTCJv8vQ2SH/7UOU2crymohsNs+Uvs8tS1O+ftO37ClrNFnJCS/AG/AIat46BgI75Kl4TXRJ9DzYX+one/u28ePa6G2YINwIzdH7u9gNu6RkEVfzfIPJk37oQz6jMK1RQp7OX+hrQw7/lov5qBofx30/9UDO83xlvqtOZJPqG3nwx7Hf8/ysi0GOkKjhO+Zp8loYSNxubz5Zkkuh6IUomEfu65v3ZRv3jUAAxgEtZIawWCtACO2wKiX5R6uRVjI9Hg7PYpvwOuYr4k3Pit4dQ1kwzCFC3puFl6zcJ3JpWL/huOF7UmZ+fVgyyt97o64uvdcRQSmkxm2d0nb5tcwzwjiiOu6Q31YwVmi8UPkomFef77u/wuRYdk0hnPf6y8xOOMhFfiiVMm8xMsHL9uGxU3Bd4dwWVjT/Yj/fsHBYRsn7EtTxk6/mJjWkv1MGKJdEld16vdmJh/iZOFkAyDDKaz2hhOAJsEN+m5UYJI4n6bgy2LJT/mTNpW+wRCVn9e4pP/aYfhZg1b2AYhqIEBsXssqeIjVIwYsxeo6ZZZglW4BZY/OAyD72IzsiX8cwaLJ8Te97aurlXHtRM+YFmLvbZHPfNfei3+T5OoS8rTHhCXgEi82zifSiUTzGNIHeF7Gw7dKzzc77lbeSh9IaLxnZJCXbnVzvwyCDjt7JIr/WuEGxpQo9nroLHfAdmVBnS/qrL/DHA/3ea32uhX2jxrWeZxxk+fiIz6Pdf1/eCxlkvtab8AQ8YnKfRC7GE4/NnwR5c5dEK/n+1GI865dm991l2WFGTSmYES3EZoaE1mahkgM0kTtu9F4dwzp1HrrqBN+XxXCD7IXwnpTXUw7zUwTrPsxahN4rc0yXnml28el+bZB5W3Mip/AIOhsw5TQMXOXxKU2GaInZieEA4szPOSEXugptVTJXsiiXDX0rdfalmpxuGxAMs9BabCJkJT2Qqy/MW8tzNGbKKjWeY3fPPtZ3RZiiAA0AE6F3d9IhrTPXRVdQHCmBeEQYyJShKvZ8p0M7uUhEzEJeIVmlfd4JPm7dtAoJIUyXnOHzFYOaUEfoTvuZ2Xp1WDDYB+Qj5nnyIf54rnmKeGJE7ATM78SK8wF6fSXIhgfX9+gzjFl0DZ6AN+ARcVZUZiAxMMBGWSDz6JKofAwFnHVcPvfRsGEWQNgYGmBjwMs4x9LmJvgx/EePBhNpKtnw4COer5SxOW3bkveUeT+25o9tYBrnIECDJ8ngaT9tf0J0SXjFmmgvs3VaRGDJQLokJuHYKJEK3qS5j3YycVrjmxyuzo8a7Tsv1vr/JXQ3VvY3EbJv4UI/M4T9nKDfBkosxmQLefYSy6IE+/19Kg7fm4CM809tbWApuiL8Aq/AMyYvsFHWjvn9hlbX/nj4AZ88r9PWGv0QE5Scd8IZ7xl9CFQEJTAhzxGwa5tcGvOWMsNYbI3D3Fpmpv3kK/9M+O9DmPl6DTaQjAmfAzn3ZM+HRudF90RtxCvwDBlI3+QF7u7bfTtujoFtciHkuzOmzsFZ11+eX+yjJGHCvBeHV7Hgi5Zi02EOiHzNotyYX+qxnGUt7gV+tAA7JPD/s5+mx/epE9FjZhfkpvZw+2BaA2F3IZap04Zu4DRwH+RZSYuOXkhWGRtcISFb8bvIW8uTq317yZNc2Ph/V5xj9uCqZgYlFMnyFANZ5jvmkp+9DmNFz5hdAzAhdv5tcm85IC/ZWZphrH57dg2D2kjJwSvwjEmz2Nx8dWGPRbPhrPXIo2zuo/25BsJ8BWP27DfEepheoWVMC5tFg3FWuPA8YRt7xB+hmz+vR2POYWjx1qV59FUf/79uZNu9r2oFfvTas2soeAResRkPoopun9+qM9cDa5JgXvH7vJWswpeJEkN5CNVdt7Q/OzsRuUVLm00Ts4n4qS9pJOQLw1hsS373bZadv91txvCbxOLOG69u5bFwY8ZAaPCA8qYrwiMyzwgD2Ta/FT1AhWZLCNlui2wSPOXHdZf5417Gl6NVfP0Vvp15Y8NM2yAL6DXQM2MuJLvWQ77wG3C0AIs9Gz95XoB8Yfg5yqroiUkDoT0TBtJDdW8uUQGXXqzKuA4pPzhKdNmlvsCyF8JsGGbh8B8NYTlZzy7l6Z03e4pr3RCvu+d2j2rjfbr9v02AMrbiLp8HmVPoeXMIj2BF+gKq6ML8geiRm65qtbiFQ35QERnGYquMbon/x8JBKrR6HwXW+nAL+60xNwRdl7k8D+kps2Nydt658nWSbBhrpZsryEBmJUoe50ath4FQVXlQfFJ0wS3LTOOmHSD0lrMsJvcE66JSRsW949Z8/mN+V/+tMWS9kFRT77zV5zOyXXS7yaC8Rt9zm9nqld7ilki2IB9Xr/LhwQzlTbcQiZX1QJhR1xBWL+SFjAVZMpCpZD0yhgXudMHqmjxP773dI466FsgGQa+M/GHPNegmeyIM+q7lPrTYzf9pCuQFPTlO1Lzr1vyaMmg2OvZA2F0xy894lZgeCh0H1GT7NJFjyrV1SXly9/LW/dmIikv4LwdzNX39RzvZmTMLPH/YKsYvTnnJuuTPs4U7cyBZnqrB02Kt58lDq1tbmshAZoXaTC5x/EfWA9mEO/lFMQtZAZvwVb2TvQ/l3FTWusn2sxaEbTtoEVKxla1TiW1Nut2GPPKPSCOi2pSn60Jv+eGHfXNJ0TUUIzxjEwxki7YnRRfQ+4jtsTOiJ6LkTPhcRrdEy4/eB5PvkxFY7e/d4DRvwtcthIF0awb0lmnwZOtHOrxv0xNlj10PoOvgBAFbyED6hGEEQk0JVc3Sg0qTKc+PyaGWHsBASLQK13nfBidMIzOCFZblTS8w6c68CUEN9Eba37vpac2D3usFGUhPbDGx125r35vu7Gs13wcri7ZIrbCnPN/svZ8322wLH4Lqda1BhO2yYeA+/+o9kSzkVEySTUwmoXrjB832eFP7s53BdFijcMwBZkd9x2yjTVNea2OdSchTjIAzZ/b6gtnjd8mjsWYov1FWCYte8p++4jpbSKh5kEnolTG8t+uLzd73RR9VyPK0SyMJDSFIYb+P+3G52c7c9S674RV7YSBJBi1lXb0n0QdlIAH75jzyUGvoRawLk7697qZLK7vmlW9OYAhEU/XUUk5llF6LjGN6MA3ytVcaaiDhFf+GgSQ5tY8VLtaSQRuIEEI03EC+gHxu2vakEEIIMRubykCEEEL0gwxECCFEX2QGslH7VSGEEGIWFmMg2dGEQgghRA8sKvZAahuBJYQQYmCEV2ykHogQQoh+2FAGIoQQoh8yA+GMMiGEEKIXFmIg2slJCCFEr0weKCWEEEL0wnwMpI8txMTIGcSmjYN4j7oxiDwZxHsIUT2yHojCd0vKlJ1+234lnsvOeVhpdsfNZjdfa3bTNWa3XW+24m7f1Xad3VcL78H/b+JOwut87/Z8fcTzjtMUl6e8vDnl6S1LPY85U4M8Xyff2vK1iayTr0XyssoW/xxzfMt1qaxenW6Xpce3+QFi65TVAjO+txgnE+zG24ifpiq78UZlKZ7zwFkZHM60PFW8qy80u/4yF7XlN/rhS9kvGL/ihOsZW1Nv/jizLbcz2+ZJZjs9w8+QWLTYbP1FrfemYrM1eE/bg1eQyKPi783pfqvuM1t6qdm1F5ndeJXZrUnU7rrVD1/KsrSQr7BByr8ttjbbaseUn09O+frM9Djl8fob+nkmQVPytf17cobLqvv9DPZrU1ldeok3bDBjTLlTWeU32WRzL6tb7WS2/VM8XzdO1xaxSi3eu8NvOG4auhvvJBgI3l/zYl4NA8kOs8nPz6Cy3HGT2XVJ3C74tdkfTje78xY/vCoqXVTAdX69vIJOttzW+nkQmMeTnmO260vMdnmu2WO2aZlJdjzvvJYQ1AW+PyIX55JguLcn473sHLPf/8rsqvPStfwM9vj+WR50ygfyM7+NnghlCKN++h97vm6XTOUxW7f+S/E3rROZcVir/mAY9IIv+k1Kp5ndcBUvsuzApixPyVteOF2+FlNuSts91Q96Im8fl8xl8Wb+8kycJ2Y+TGtUNNxAHsJAOGG59qG8ZTYQKiOViM+4JhW8a1LL7cJTzc461lvFCzcwW2+hV8aiOXTDpCFwu7bVm9kkVcZnv9Tsua802/lZqbVXqJx1ETzyMowDgbvy/GQaJ5qde5Kf1455Zr2GPG/CHLqhmK/kGUejMhSzzc5mL3i12TOS6D1hV39dZs65iFadzJDJ1zz05sarkxmfZfa7ozx/yT/KK4eJTZbVyX9mgTwqPGQokaNmKfdP/yOz3VNZ3WW3ZCY7tp6nrI6z0dNwA1mNgSRZrf9iwrIaCJUgKuMlvzM7+/hkHL9MgndH+lFSj2HBQv+cnIDYVSWcBSobeUEB53xtvj+tvOcn0XvuK7zyl6FizoVir4Pf/NwTzM44xuzi0/17cyxsJux5L2LOkKe5QWDQHJH66NQr2f1VLnpP3t1fVvytq0ixccHc0FmprJ55tA9TUVY5Lhcor4PI10nTnfCeI+fC7/h0sz96rdluLzfb4vH+d0jj6o003EDuw0BScbdN2p+pG6UzkFzk+Fy3Xmd24g+TeRznw1YbPaol8oOoiJ2YHFaYcMFbb303kj3enFrPf+Kvme3M7TJS/E0Z+jvlJ96bQ7w33CQ3lyFW7jBo/t6KlK9bbGv2vD8ze/lbzR6b7j+Sm3PHoZwSE+b34Cqzk39sdvqRqad8URLLDb0nR55mPekhQTkk35i3wkyelHoif/LGVF7f1GoMjKOsNtxA7sVAbkt3HtP+TN0onYHk/PqnyTwOMlt2uVdEhDyLoBqScXSCljp/b+V9ni8vSC28N/ydz5lwvSo9kRARotCO3Mfsd6l1fFcq3YtpHiEyI6zUmZHkgkvLefunmr3qHWYvfL0/X6V8jc96xXlmv/hO6imf6UZIT27YxtFOzFXdf58P6z7zRWavT2V1u6dM7SGNioYbyO3I5/3tV8XwCGO4/16z/T9pdsgXza6/0lvHFH6GQEZpHsBcAUNki1PPZ2US3xMPNvvK+7yFWSWRQ1yYHP/aB8xOOMiH6Dbe1L/bqCs0n4dILoYg+W1vuMLswM+ZLfmM//bk66h/557JPx+f9bgDzb79EbM//DYJ93oukpTVUZoH8PdoYNG4ob6cc4LZtz7sPc1J8yh7vtaH+2UgIyRacsuSmOz9frPTDveWHKGKwxyu6goE72EXPCaWr77A7OsfNPvtEYWXjPPzTUdB5E45LIncR5Px/cHDagll5juNU1Cy+as13rtck+6fdpgb3E1X5eY8xs82E9lvPeG99v0/ZfaTvX1IjiErnhq1IbfD3yf/FqVe0J23mv3w86kx9iXv7fG5yXcxdDIDYRIdSlqUq0+Mu1PgLzzN7Jv/4Os5qIzZXEeJCnuYBILHUNCBnzU7/NsuxGVrNYfIkbeH/6/ZQZ/1xX4L1/fnyiQi2aT+PB+ivDr17L7yd2ZXnGsudiXKU8iGZSZ8PczX/j41Io70ckrDIiIGy0D8xnwuIrWOXWK278fN7r3Th5XKVK9qRpSAleqBDJu8kFMBz/yl2Xc/4es5aCFnFaAklbEdPhcVk9tf7Gt26JfzkEqeK0PFXOsiR/gsn+3n38hDneeVO08jX++9LfXw/sEn+DNjLkOemosueciCyq/mJpflawmNLsg+11qfk6GOfedfPRiFIU2ZyFBZVeyBiCEQkVYUbFrIjMvTCi2LYMwGlRDBO+mHZj/e2+wBhghs/J8fzWAM/sdfMfvlAS4eZRW4TsQE+z5J7C7AROb5XNQ4ySah5/lWI9/8kNkNV3pYd1Xg8xMwwaLb737Sh7b4PlUqFxVjBQZyd/tVMRii50E46Q/+n694zlr1YxbfXqDy0esgxv9Xh6beyD6tKLFxVcwYDvz5t3xyd6NNqtnSZI6GMfv9P+FrgIiGG5eJRFldnnoe3/k336tq4aLx/cb9Qv5ttLFHii35d98+pcy9p4pztwxkiNCqZCsSom8IO1ywoJpCF0ME9JyO+76HHmfhz2MwkQjVZLz7mO95NE4V8xSy8fuFHj59QBK7pRe7iYx6gjpr0Ez4xoYHp4bO0jwIoUoNnSKYCAsbabj98At5ZOMjWXEVg0UGMiwQVlo/CANzHowjV1XoIIwC4zjsa2YXn+H3RxnmG4vwWK3PpDl5WnUwC1r6t9+UxO6LfjvKCeD4XdmG5ejv+j5WdVjHQP4xrHnG0R4EQrmpqiGWmMxA7mq/KuYIwz5JWA/+XN6aWzQ6QRgmVEBayIzdf/8zPlE5KrKexwJvpf/0G0nwVrcWQFYdjJGIvMvPSb2q73pgwKiGXfg7GBZ7WTHPhXnURWjJPyLyWNd0+i98PiQL6xaD4q6igYyguNafrOU24WPz551c7aGATmCE69FivsHsB59vf3Y4IATZNhb3mx21n6+hYHK3DqYcZC3mxWYnH+p7oY2iZxcGtewys598NZ+fK1yvOlFuOIfk6P08KIDtWKreuyoBUUIyA2ErEzEAYiKSeY/jD/KFY6MQglHDmQ8IOGtaaLVm14YoOtn4dXr/Xx/m+4WxV1jtRGCt10rmmQ77um+NPopeCKHZh37F90NjUr9OjR3g+zACwFZBx+zv5abMod4V4zYMZHn7VdEHa70VSVQN+wVx5kQsaKsrfLej98/H7RG7IYhPmDKHaGHK2Y6vNc3TbFJ9Pd9XibU3TAYPs/3Bb/abn/v2JFmPrm6mnEO+EqnH8QhnHDW8stpAlstABgTmQfeY9R5MMG+QWj11FboAseOcDRbxwTDMktYiUTQn/8jXJ2DKdRq6agcRZ2sbxuwvSeVoWA6CgGZGlRo7628wnN+uLGTfjcCElLcnHeLHE5dtB4iKkhnIvSkxtTSkolp/KIgI3b13+N5R2XDAgnpXSsiG51K66HRfx5BVygG2YiP/rjrf85VDr5owCZrNMy00+9k3fUJ90JCvlNcj/9fsPmIwUYGaw7ArxxFfeZ4Pg8bWPKIvyDlq4r0UHe7cnl+sueQNh0xHJ3xn0MvO9l1tx7UgbJQgRAuT0N13h/cQMrEbYCkiT+l9HLvE55MG9b5VgIghJrfPPNYfD6oxEu9DIAJBHvxeTdHRbAv6TcxO/IGH1o9ijqmGkGMUGebOH8ZAUhW1GwpPih5gKIDWHIuwGGOlQDYpE/m+LIbjrIiL6YXMG6x5Xn2+n7PNMEvThhwoVyzcnGwtD6BgZeU1vdcvl+Q95fntr6gvlFVGBtjni8Ze5IXoiSiFN6b0UPRAeFB8UnRLXgAvP9uHcbJtNQYooGWHSslwCzu3cnQsj7NFWwMqSccfbFkeN808gKK1/Pokdsf747nmAf8fg+ccczZJzIZeGyag2cmUG3v0ILtDiL5hFVjWA2Hg4fq2J0UXZGPJqQKuSgXxrOPybSjmWMmrCAc2ESp56Vlm1+aHUA0iyoVQVgISmtRKLkJrmbUvp/68/Zn+YB4AV2LRIJFzdY8SnA7KJ4tgzz+l/RnRBev0QChWGsKaA3SJz/+VT9I1qfcRYBaEgbIB3yVncaH9Fb0RonbqT30OpGmt5CL05jBSJn/nsj15NnyzXmp13+Mr3mO1exOheJEX7OnWRAOdI5FjSfW8BwJhIKIHoqXNpm0IXZPJJtSTiVz6O7O7b5/7MBYChykPoidTVWJ48O7lrQnvfvMj632Y9+iynXbz82gayVovn2yLQzCB6Its1CoM5Lr8tqlFqm9W32929gk+hNNv5a4DfHf2UWIy/eZr8mt9lKaY2GRCnhBTWt1NJlsH86APDTKc1bcxYz7p/11+ngd8sDN0X+9TE7LO11pft5XdbXDd7ZEoNZlnRPW80zwaq6Gjzf1z61KzG6+aQ8WuCdnk+YRH9nAmORWSx70SQzSMT3MeN/naZMhHItBuu9Hsyt/3N7+U/RbzfeHg9Vd41FzjyaMFL/xN/riPstpQqJF4BZ4xaSAca8usOo97LJ7NhtPPmt5KDhB/VlEzxr6S5al5q7cXyEu2g7nuEs1/APmH4GMg1/4hv9ZjDQ1Tvv5y31CwiSHRnaBssR4k9h3T+MusUGpQO7wiOwo9pG9FStfm95WNPUDkkTZnc4jGYjNAVo6v6OOUmVjRj8jdd6dHIQnLaimL4Ai/xVTZ1r6n8pab8C2pht99S94D6eX/1xF6zHlj5dIz/ZJMdVai1OAVeIYMZC4w/0FLuZ+hmlpCpZzvK9OX57NqvfQgomVNS3vFvc3YDqYrHvEAhduWefhpNozVZb7wuuwMl9XJgK7sw3xqTLbV+6rU4LnAHytfZmVaA0nFy67O7ysbZyPPIbaa4KwBjZ+2yARrgW9p32uFjNczTn//vV7BhedLDGPd1mvAff469mm7aWm+9kMtbWfCFxYyj5k91FD0bETJwSvwjMxAoppGQFu3RbOxRAZhICD/aJFNpicDWXZFjxsB8v/yQIQ7b/b1NL30XupMZiDr+Xg9Ka51Q7zs3ju9V5gdGtXl/609eZljvo4V/wxpyVy7IrxiftFzbzVfVMjIs4pYF9xydV7gJHQt1noP5Jalfs52t2TGk0rjPbf5/Ek2/6FSOAlmStTQndRSHnfbWs7zcMVdvt3M/IUykCKUOcKjly/zx8qbaSFnqJV4RF4KW0NYkDq52eIQrikbZyLPnVuWqcC1kxnBfG/RTS6u7CKP4iUIJHsUZeedT3lFs4leyF235BPptJa7yKAwmjuXp//HpoxTn240ZN9EKmcPrPatXeKa6AhZQ2nCI9i9PYML0Wlje95r8vvKxy5A7NTlXRdayw+s9DUhXZPnI9FXq1fk8x8qhS3WuqmSP6uy6cvuiAn3e5Zr+GodaOwkBXxotS+uzFB9no4oOXhEGMgjxR4IF8NAlI3TsdZbdYzvP7DKvEmnZt06kEcsXPMHU57qSJROhq/IV62tmUrMLbE6nyEXvzjlJesQZrHmITeebnstTSJCeQkyAGXPtIQn4BF5brWGqxjbYlv3iMSSgUxDFDBa19m2G8WLwsFkU8as7GUtSJ6HtK4feMANSGLXgqxA7Fidj+D1AkNeTBR3PW/SJCZ8aI8dtcWMFCOwGJzOZimjSEUbcWl+q6VGs7BqpUcKddO6biorexhqicJG67rJO8XOBAZA7yzmlrqtoISqUl7Vq5ueCPhQuesIRS02wFma32Y5FUUq3OU6833eebLb8tlIaAWqhTwDqQSt6bGlDLQGZcwdyHt1mEevJz7SU85MR7W6I2QLJpvdVx51ghwhZwg1WJZfyzwjDCSybGmeitdEBxA65dDM9Cp0gHlMDg2KdUDoeg3coKGTratpf0I4E4U8VSZ1IpTu2jxNXisaCPdvNk2kd0WvlVh0RxiIKvK60DpmvyaVvcFTbAuqXbgOUeLwBjwi5s6nGEhsXXdFfqsRUyGEEOEFV+a3k8t8iyYRxssGHUx/KhJfCCGaDR6AF+AJlxauZRQNJLopF1vriFt1loUQormEBxBcdUnbtXUMBKdhoyzGuYQQQgjAE/AGPKKjgURXhYC/6KpoHkQIIZpLeACewGqZKVMb7QYRznJ2SrFRh+ZBhBCieaD9eABegCfAlGmN6Qzkd1bY70QIIURjwQvOyO/PaCARzkskVmyFpx6IEEI0j9B+zv/AE9Y5paeTgcQSrnPzWy3pEkKI5hHaf17h8YwGAtFFOcn83FsZiBBCNA+0nx3tTskfr7OsYyYDOTGlLk8eEEIIUSNC8/EAvAC6MhD+I9eZOImFI+qFCCFEcwjNj/lwPGGdjkQnA4GYCwnnEUII0TyOsw5zH8F0BgL8h6PaLwohhGgMeEBH84DpDCT+A7Pv1xWfEEII0QjQ/ojA6mgi0xlIEL0Qbju+gRBCiFoRen90fjstsxkIHGkzjIEJIYSoFTEHfkT7E+3MZCDFRSREZMlEhBCi3oR5oPnFBYQdmclAwizusdZk+jpxwEIIIWpDaDzDV2g/TNtxmMlAAOdhe/fD8/syECGEqC9oPFqP5qP90/Y+YDYDCS5K6RbrsJmWEEKIWoC2o/Fo/YVtz3WkWwO5KaXjzd1oTdtzQgghqg/ajsaj9Wj+rMxmIDgSr+FAEVYkxjUhhBD1IrQdrUfzO25fUmQ2A4EYAzs/paUprWeaCxFCiDqBpqPtLB5E62HG+Q/oxkBiUuXqlE7Ir2kYSwgh6kNoOsNXaH1XQVPdGEhMrLAv/GnmM/Ozdm2EEEJUgpiqQNvReLS+q4CpbgwEwol+a77F+/zCNSGEENUFLUfT0XY0Pq7NSrcGQvcGR7rW3KFgVncSQghRekLL0XY0Hq3vapqiWwOB2MqEM0LuNvVChBCi6kTvA01H29H4WSfPg14M5GHzNz42pYvz+5XshaxNn3rtI3NMlfzmo6WvfFa+zko/+Spmpz3PekrVLbdhGGg62s59tL4rTBHsLgAAE4dJREFUejEQ/lBMphONxWOcq1LMS594g41SLqVvPm+B3/aS+P/crr/IPKvFtKy3/rr5N12K1663sNKVcSRQ9sir+bOU3yirGyz2+6IzlLfIK/I07neTQkPQlIrmMZ86Rpa6njwPJvbarevXQsqq7M13Mf+D2+SPSy+l89Inf2C12Y5PN3vjB8022dxbDvz4vUBhm0jf9oarzA75gtnqlZUtOEOD/HnoQbNXvsPsBa9pf7Yzax72ynvSIWYnp7R4s9S37moUthmQp5Q9jPatHzPb9okpfx7xcj0dUVZX3mN22NfNrrvY/z//Tzjk3/0rzJ68u9nffNzzhjwjdUNoyL13mv38W2bX/iEZ/AaVyePQ7htTeoX5+eddhe8GvRoI4FB0cX6W0hvya11m93ihUDz8kIv+XH9gxG7R4u4LWuNI+fLA/WYPrm5/ojNkIyWR1jVJvZDOkC+rVrjhdgtllLI6n2Viytd1yHThQTeSfsGI6IUsWK9SZTc+KRsn/rm1tL1r+jGQ6IXgWBw2tX7+uBJSSmEZSI8hfeM1aiHPCJWq5x7eI3M397ozn/LbY22jN1chYRs5g9CFiuVxaDbDVq8zn5boqfcB/RgI8IfI7nNSembhmhBCiPITws+uu881D9vt2Qx6bB9OglnQ1VmS35d5CCFEdQjdXmKtCNue6ddA6ObEH79r6lNCCCEqwJ3W6gT0NHQV9GsgQHeHxSf7Fx4LIYQoN6HVS8w1vG/tnouBBPtan+NnQgghxgKavU/7xV4ZhIEsTemH5u+luCQhhCgvceogmr106lO9MwgDYQvg7+W36oUIIUR5QaOLmj0n5mogMXN/rvkxiD0vRBFCCDES0GY0mkOj0GzoK/oqmKuB4Ga8x30pHWA+kx8LDYUQQpSD0Gpu0Wo0e85aPVcDKfJr8/3keU/1QoQQojygyWjzqSmdMvWp/hmEgdDrYFX6HSkdnF+LHR6FEEKMF7Q4NmpBo9FqHve19qPIIAwEwix+kdLppogsIYQoC2gxmow2o9EwkAb+oAwEJ2Ovz1tT+lH+WL0QIYQYL9H7QJMPNddotHrOvQ8YlIFAxBfzIZnh574MRAghxgcajBajyTTuuT+w0aFBGgiORojYcvNFKsQYzylETAghxJxAg9FiNBltRqMH0vuAQRoIMNNPd+nAlC4x9UKEEGJcRO/jUnNNRpsHGiE7aAMJs2CXx29Za5tgmYgQQoyOMA+Gq9BiNDmuD4xBGwjwgXG6g8wPK4kvIoQQYjREwx0Njt7HwOY+gmEYCDDGxlGJnzWZhxBCjAO09zPmWjyweY8iwzKQ6HVwWPuvCteEEEIMl9BatBcNHto0wrAMBOIDf8Lc/YbigEIIIaYQeov2wlDMA4ZpIME5KX3fhjQGJ4QQYpKYg0Zz0d6hMmwDoetEJNaXzaMAcMWhuaEQQjQYtBWNRWvR3IiCHRrDNhDgb1yZ0tfNl9CrFyKEEIMHbUVj0Vo0d+j6Puw/EL2NOAHrDzaExSxCCNFwYhE3GovWxmmDQx3xGbaBQGyseENKe+eP+btD/WJCCNEQ0FI0FW1FY9HagWzXPhujMBCIL8hmXsfk9zWUJYQQcye2a0db0diRNdBHZSDR61hlPj53uw14Uy8hhGggaChaiqairWhs9EaGzqgMBBijY4LnpJR+0PacEEKI/mG3XbQVjR3ZHPMoDQTizJD/SuliG2FXSwghakZMDbDzOZoamyeOjFEbSEyo32a+R4vWhQghRH/Eug+0lLM+RjJxXmTUBgKxuOXHKf3M1AsRQoh+QDvRUE6BjUXbI2UcBhLwt//J3DkxEJmIEELMTvQ80E40dGw6Pq4/HBmwLKV/sfF9DiGEqCJoJtqJho5tKmDcws3fJyLrJzaGCSAhhKgYEYiEZqKdY9Xwsf5xc9ckQz6d0q02hkkgIYSoCBGEhFaimWjnWHoeQRkMBDe9PKV/M8+QsXXHhBCipMSwPxr5MXPNHNpBUd0ybgMJIirrQPNVlRrKEkKIFmgi2ohGRtTV2CmDgcRiGJbgf8l8G2KZiBBCOGEeaCMaGduVjLX3AWUwECCDGNu7LKVPprQiv675ECFEkwkNRBPRRjSyNKe7lsVAgIxiH5efpnSAtT7b2F1WCCHGQGgfWogmoo1oZGka1mUykIjI4jP9p/l5vtwvxVifEEKMGLQPDUQL0UTujz3yqkiZDAQiAuuOlN6b0t359dJkmBBCjIDQPDQQLUQTIxKrNJTNQCB6IRek9K9tzwkhRJNAA9HC6H2UijIaCOCydN/2S2n//H7pMk8IIYYAWofmoX1oIPdL1fMIymogRdgs7GwrUeSBEEIMiYhIRfPQvlJTZgOJMcB7Unp3Sjebf95SOrEQQswRtA2NQ+vQPLQPSjsHXGYDgYhC+ENKH0lppbW2OxFCiLoQ25SgcWgdmlf6KNSyGwjOS2IVJgencGg8cdBxXQghqk7oGdqGxqF1aF7pda7sBgIRukb6Yko/t9auvaXOXCGEmIXQNzQNbUPjQu9Kr29VMBCIIav7UtorpXPNM7z0GSyEEDOAhqFlaBrahsZBJYbpq2IgENEJt5svrLnR/PPLRIQQVQTtQsPQMjQNbatUtGmVDATIWMYGf5/SB1O630o+ySSEENOAdqFhaBmaVrldyKtmIPCw+ec+PKWPW2sMUQghqkJoFhqGlqFpaFulqKKBQKxU/0ZKe1tFM18I0UiiEYx2oWGlXWk+G1U1EIjJJ47C5XB5un8PTXmFEEKUCzQKrUKz2Oeq0sFAVTYQiHC3D6R0rHkctUxECFFG0CY0Cq1Cs0K/KkvVDQTnpvt3r/nS/9PNf6BKTUQJIWoPmoQ2oVFoFZqFdlW29wFVNxCIRTjsH0MoHFsAVCoUTghRa2IJAtqERqFVsRi60tTBQCDCey9J6T0pXWsyESHE+AnzQJPQJjSqcuG601EXAwEiG/ihzjRf0bk8f1x5lxdCVJIYHUGL0CS0ice1iRitk4FAuP2JKb3ffJyR71jpcUYhROWIVeZoEFqEJtVuVKRuBgL8QHwvNiZ7n/neMpWNsxZCVI5Yp4b2oEFoEZpUK/OAOhoI8APy3X5kHi4nExFCjIKieaA9aBBaVEvtqauBAD8Yk1UHp/ShlFabTEQIMTzCPNAaNAftQYNqqzl1NhBgsoofcInJRIQQw6PdPJaYa09tJsw7UXcDgQjx/a61TKS2XUohxMiJIfMwD7SmNqG6M9EEAyEaIqKz+GEZl1xhMhEhxNwJ8+As878315iItqp99GcTDARiy3d+2CXmYXX3WE0jI4QQIyEiPtESNOUAa609q715QFMMBKInwndmJ8x3WWuxoUxECNELMapxW0p/az5hHg3SRpgHNMlAguhyEpv91pSus5qtDhVCDJXY9WJZSm9L6afW0CHxJhoIhImclNKbzDc503kiQojZiPM8Lk7pzSkdbw01D2iqgUCsEzk7pbek9FvTeSJCiOmJ8zzQCsyDva1qvc5jNppsIBDrRNgh869SOtpa54k0ZhxTCDEjMX+KNqARaEXsqtvooe+mGwjEeOYN5uOZTIbxuPKHvQgh5kwcWocmoA1oBFqheVOTgQQRnXW3eUTFV/PrWrUuRHOJ1eWAJqANaEREWzUeGUiLKCwPpvTRlD6c0v2mwiJEE4lGJRqAFqAJaIMalQVkIFMpDll93TzM9yZr0MpSIRpOcecK6j4agBYUnxc5MpDpoaVxREqvTek8a9gKUyEaSHHHCuo8dR8NiGEs0YYMZHooTOTP780LEouFKFjRQhFC1IcYYaCOU9ep89R9NECNxmmQgcxMrBW5OaW3p/S5/FoMaQkhqk8MWWEU/2Ve16nzjV7j0Q0ykNmJMN9VKX06pXekdGt+TSYiRLUJ86BOYxyfMq/rCtPtAhlId0REBmOhh6T0CvNVqBQyUBdXiGoRdZY6TF2mTlO3qeOKvOwSGUj3RFeWAnaReYFj7/+4JhMRohrE4kCgDlOXqdNxTcNWXSID6Q0KXhS++1J6b0p7mZ8HEIVPRiJEOYm6SV2lzlJ3qcPU5WgEqv72gAykP4otmP1Seql5Nxi4rrFTIcoFdTLqLHWVOkvdBY0g9IkMpH+KY6iE+708pW+ar1yNreFVKIUYL9TB2IKdukkdpa5SZzWHOUdkIHMnojg4E/lD5vvlcL4IO3cylqrxVCHGQ9Q/6iJ1krpJHaWuKopyAMhABgMFkW4wrZwfmZ8VsMS8kCqiQ4jRE5GT1MEl5nWSukkdpa6qTg4AGcjgoKXDOCutnUtTen9Ke1rr3HX1RIQYDbHYl7r3LvO6SJ2kblJHVRcHhAxk8DDeSuF9IKXvp/TilH5symshRgV1jTpH3VtiXhepkzptdMBI1IZDDGmRLjdfvf5O8xZRoIk7IQZDsS5Rx6hr1DnqXtRDDVkNARnI8CiuGaEFdGBKu6d0WP44QgfVnRaiP6g7xTpG3aKOUdeKdUyNtSEhAxk+UXgpzMtSepP53MjF+TV+A8ZlVciF6A7qCnWGukMdoi7taV63qGNci9eJISIDGR1RmBmLJRrkJeYH1dDlJjKE59XNFmJmqCPUFeoMdYc6RF2iTmldx4iRgYyeWDdyh/lRmW8zP7QmQg45NlMVQIipUCeoGxEaf6R53aEOUZe0rmMMyEDGQ0yyE1Z4gnmM+rvNV8cuzJ/TdihCOFEXqBvnmy8IpM5Qd6hDmiQfEzKQ8UGLKrZYoGV1QEp/aX7myIr8ekwSCtFEKPvUAeoCdYK6QR35nvkkubYMGjMykPETm7xRGa4xP/XwBSl9x1qThEI0kQgyoS78kXnduNpaq8nVSx8zMpByUIwqAaJKPpjSC1M6OV6Uo16JqCPR2yhC2acOUBeoE6CoxRIhAykXUYGikpxhvnPoG1M6N78WvZKIRhGiykT0YTGknbJOmafsUweKjat2kxFjRAZSToqVhAp2eErPNW+JMYnItQhZlJGIKhLGAZRlHlO2/8G8rFPmi+VaxlFCJvbaTdpTAaJ1RoXbMKW/N180xapbKMbGC1F2Yt4vGkFnp/STlP7H/MyO2HxU4lRyZCDVIlpqVK7NUnq7eVTKi/LnY1JRRiLKSHv5/I359iMHpnSXTR2eFRVABlI9ImIrdhZ9XEqvTemvUnpZfo3nqIzRwhNinGAINHpYswEnpXRoSkeldHN+LbZalyBVCBlIdcEgYg0JbJnSn5jvQvq6/BqVFsNRKLAYB4gLKeZaWT1Ob4Oex635NRYHYhya46ggMpDqQ+WM6BV4VErPNl/ZzhCXEOPmIPPFf+y0cE9+LRbKyjgqjAykPrSHOdKy2z6l95mbCXMmQfzo6pmIQdCpPDGngWnsm9JSa/WU28upqDAykPoRlbj4w25qfrTnnintbB7JFTA+HZOXQnRLBHMU59mIoLrK/BTAA1K6u/Bcp3IpKo4MpHm80rxXQqz94wvXI7RSZiKmI0yD22Kk3/UpnWO+5chxheui5shAmkN7C/BJKf11Sv8npWea91IgImZi22whKA/RU40eB72LC823GzkkpSvy6+3lTNQYGUjzCBGIMGBakq8x3zaCfYeek18HXhMLvtQraRYIQyxQjfBbOC+l01M6MaWjrRW8wWui8SEaggykuYSRFCs98yPPM1+Y+IqUdsqvQ6wt0RBXfYkhKlLRNK42P3vjtJTOMp/ngE5lSDQIGYiIHgZEa5JrT01p15ReldKrU3p0/hwgFrxGRlIPEAFScciSU/6OSenYlC5I6ZL8NRDzH9FDEQ1FBiKKtA9vARFbW5ubyRvMV73HfEk7FCaZSrmZ6TdiXoPV4WxkiGncZB5ZFWiYSkxBBiI6Eb0LUnFfovVT2sQ8guv15j2TbfPXtRO9FOj0vBg+UbnbexcB128w72kcYR5Jda/5aX8BDYrooUgsxBRkIGI2wkg6CQiixKQ7k/B/mtIuKW2U0gbFF1kr9LNoTGLwFIWePG43jdUprUzp8pSON58EZ1K8vUcx028uxCQyENErISyd2MI8mmuPlHbLHzN3sqjwGohhkJiQl6n0TtEsIi/bN89cZT6Xsdz8kKZTzKOneNyJmX5bIdZBBiLmSnGYqr0ly0T8883PLaF3wnDXViltXHyR+f+LhYzRcpaptCgaRdxnIru9h3Gf+e62DEvRy+CcjTPNJ8CL8P+i4ksARN/IQMQgKRoARFRX8LSUnmJuLIQMP8F8vy6MpZ0wFWjvqdTVWIq9ijAM6GQWgFFcl9I15qG1GMWl1jo/PIioqaIBCTFnZCBimCB6kTpt2U10FwayQ37LuhMSj0mdjIL3iIn9dkOpgrkUBbxoFjDd6n+eX5on1mSQMA4ec0u0VBHeo7jbbXu+CzEQZCBiVCDs0ZPgFhMoRngBAvrYlB6TJ+ZQMJQnmhvKdvlt+1h/kU4t7JlMZabnuqH9bxVpf242gyM/lqa0LL+90twsODuDuYzbU7otf10R8oMUPYy4FWKoyEDEuCj2HmJMvn3IK2ASnuiuSKxDoceCoTD8RdomTxysNZPBjBOEHzO4MU8MQZEwDHoSrMMgSioSk+CdoHdBvhWHpFSRxciRgYgyUWyhx217a7sdzIIFbpEQV0yG3gtmEpFgmE4kzkZZnKcIO8ak+L+8X9zGdh4srORzYHBxi7hHWOyKPHEGBiYQKSKgMA1ueS3/l/eL1M33g6ioMgtRGv4/NtkXcb7zHM4AAAAASUVORK5CYII=;" vertex="1" parent="1">
          <mxGeometry x="370" y="324.75" width="55" height="55" as="geometry" />
        </mxCell>
        <mxCell id="nZGiTTlPK6p4zg9V-APO-43" value="&lt;div&gt;hey, I got this request, is it authorized?&lt;/div&gt;" style="edgeStyle=orthogonalEdgeStyle;rounded=0;orthogonalLoop=1;jettySize=auto;html=1;entryX=0;entryY=0.5;entryDx=0;entryDy=0;" edge="1" parent="1" source="nZGiTTlPK6p4zg9V-APO-30" target="nZGiTTlPK6p4zg9V-APO-28">
          <mxGeometry x="0.0323" y="25" relative="1" as="geometry">
            <mxPoint x="130" y="444.5" as="targetPoint" />
            <mxPoint as="offset" />
          </mxGeometry>
        </mxCell>
        <mxCell id="nZGiTTlPK6p4zg9V-APO-30" value="nginx-ingress" style="shape=image;html=1;verticalAlign=top;verticalLabelPosition=bottom;labelBackgroundColor=#ffffff;imageAspect=0;aspect=fixed;image=https://cdn4.iconfinder.com/data/icons/logos-brands-5/24/nginx-128.png" vertex="1" parent="1">
          <mxGeometry x="100" y="304.5" width="95.5" height="95.5" as="geometry" />
        </mxCell>
        <mxCell id="nZGiTTlPK6p4zg9V-APO-31" value="web app" style="pointerEvents=1;shadow=0;dashed=0;html=1;strokeColor=none;fillColor=#505050;labelPosition=center;verticalLabelPosition=bottom;verticalAlign=top;outlineConnect=0;align=center;shape=mxgraph.office.concepts.application_web;" vertex="1" parent="1">
          <mxGeometry x="50" y="440" width="56" height="49" as="geometry" />
        </mxCell>
        <mxCell id="nZGiTTlPK6p4zg9V-APO-58" value="no" style="edgeStyle=orthogonalEdgeStyle;rounded=0;orthogonalLoop=1;jettySize=auto;html=1;" edge="1" parent="1">
          <mxGeometry relative="1" as="geometry">
            <mxPoint x="275" y="110.01857142857135" as="sourcePoint" />
            <mxPoint x="350" y="140" as="targetPoint" />
            <Array as="points">
              <mxPoint x="275" y="120" />
            </Array>
          </mxGeometry>
        </mxCell>
        <mxCell id="nZGiTTlPK6p4zg9V-APO-61" value="&lt;div&gt;is this authorized?&lt;/div&gt;&lt;div&gt;&lt;br&gt;&lt;/div&gt;" style="text;html=1;align=center;verticalAlign=middle;resizable=0;points=[];autosize=1;" vertex="1" parent="1">
          <mxGeometry x="275" y="60" width="110" height="30" as="geometry" />
        </mxCell>
        <mxCell id="nZGiTTlPK6p4zg9V-APO-62" value="web app" style="pointerEvents=1;shadow=0;dashed=0;html=1;strokeColor=none;fillColor=#505050;labelPosition=center;verticalLabelPosition=bottom;verticalAlign=top;outlineConnect=0;align=center;shape=mxgraph.office.concepts.application_web;" vertex="1" parent="1">
          <mxGeometry x="410" y="80" width="56" height="49" as="geometry" />
        </mxCell>
        <mxCell id="nZGiTTlPK6p4zg9V-APO-65" value="" style="edgeStyle=orthogonalEdgeStyle;rounded=0;orthogonalLoop=1;jettySize=auto;html=1;entryX=0;entryY=0.833;entryDx=0;entryDy=0;entryPerimeter=0;" edge="1" parent="1" source="nZGiTTlPK6p4zg9V-APO-63" target="nZGiTTlPK6p4zg9V-APO-14">
          <mxGeometry relative="1" as="geometry">
            <mxPoint x="235" y="162.5" as="targetPoint" />
            <Array as="points">
              <mxPoint x="100" y="170" />
              <mxPoint x="100" y="130" />
            </Array>
          </mxGeometry>
        </mxCell>
        <mxCell id="nZGiTTlPK6p4zg9V-APO-63" value="Login" style="html=1;strokeColor=none;fillColor=#0079D6;labelPosition=center;verticalLabelPosition=middle;verticalAlign=top;align=center;fontSize=12;outlineConnect=0;spacingTop=-6;fontColor=#FFFFFF;shape=mxgraph.sitemap.login;rounded=1;" vertex="1" parent="1">
          <mxGeometry x="315" y="140" width="70" height="45" as="geometry" />
        </mxCell>
        <mxCell id="nZGiTTlPK6p4zg9V-APO-66" value="" style="rounded=1;whiteSpace=wrap;html=1;fillColor=none;" vertex="1" parent="1">
          <mxGeometry x="10" y="45" width="480" height="155" as="geometry" />
        </mxCell>
        <mxCell id="nZGiTTlPK6p4zg9V-APO-67" value="pomerium flow without forward auth" style="text;strokeColor=none;fillColor=none;html=1;fontSize=24;fontStyle=1;verticalAlign=middle;align=center;rounded=1;" vertex="1" parent="1">
          <mxGeometry x="160" y="10" width="100" height="40" as="geometry" />
        </mxCell>
        <mxCell id="nZGiTTlPK6p4zg9V-APO-69" value="pomerium flow with forward auth" style="text;strokeColor=none;fillColor=none;html=1;fontSize=24;fontStyle=1;verticalAlign=middle;align=center;rounded=1;" vertex="1" parent="1">
          <mxGeometry x="140" y="250" width="100" height="40" as="geometry" />
        </mxCell>
        <mxCell id="nZGiTTlPK6p4zg9V-APO-80" value="yes" style="curved=1;endArrow=classic;html=1;exitX=0;exitY=0.75;exitDx=0;exitDy=0;fillColor=#d5e8d4;strokeColor=#82b366;strokeWidth=2;" edge="1" parent="1" source="nZGiTTlPK6p4zg9V-APO-28">
          <mxGeometry x="-0.5451" y="1" width="50" height="50" relative="1" as="geometry">
            <mxPoint x="220" y="450" as="sourcePoint" />
            <mxPoint x="80" y="440" as="targetPoint" />
            <Array as="points">
              <mxPoint x="270" y="370" />
              <mxPoint x="100" y="370" />
            </Array>
            <mxPoint as="offset" />
          </mxGeometry>
        </mxCell>
        <mxCell id="nZGiTTlPK6p4zg9V-APO-81" value="no" style="curved=1;endArrow=classic;html=1;exitX=0;exitY=0.75;exitDx=0;exitDy=0;strokeWidth=2;fillColor=#f8cecc;strokeColor=#b85450;" edge="1" parent="1">
          <mxGeometry x="-0.5451" y="1" width="50" height="50" relative="1" as="geometry">
            <mxPoint x="380" y="378.5" as="sourcePoint" />
            <mxPoint x="210" y="430" as="targetPoint" />
            <Array as="points">
              <mxPoint x="280" y="390" />
              <mxPoint x="140" y="340" />
            </Array>
            <mxPoint as="offset" />
          </mxGeometry>
        </mxCell>
        <mxCell id="nZGiTTlPK6p4zg9V-APO-84" value="" style="edgeStyle=orthogonalEdgeStyle;rounded=0;orthogonalLoop=1;jettySize=auto;html=1;strokeWidth=1;entryX=0;entryY=0.75;entryDx=0;entryDy=0;exitX=0.5;exitY=1;exitDx=0;exitDy=0;exitPerimeter=0;" edge="1" parent="1" source="nZGiTTlPK6p4zg9V-APO-82" target="nZGiTTlPK6p4zg9V-APO-30">
          <mxGeometry relative="1" as="geometry">
            <mxPoint x="215" y="560" as="targetPoint" />
            <Array as="points">
              <mxPoint x="215" y="520" />
              <mxPoint x="40" y="520" />
              <mxPoint x="40" y="390" />
              <mxPoint x="90" y="390" />
              <mxPoint x="90" y="376" />
            </Array>
          </mxGeometry>
        </mxCell>
        <mxCell id="nZGiTTlPK6p4zg9V-APO-82" value="Login" style="html=1;strokeColor=none;fillColor=#0079D6;labelPosition=center;verticalLabelPosition=middle;verticalAlign=top;align=center;fontSize=12;outlineConnect=0;spacingTop=-6;fontColor=#FFFFFF;shape=mxgraph.sitemap.login;rounded=1;" vertex="1" parent="1">
          <mxGeometry x="180" y="429.5" width="70" height="50.5" as="geometry" />
        </mxCell>
      </root>
    </mxGraphModel>
  </diagram>
</mxfile>
